# Blender 5.2.0 LTS
# www.blender.org
mtllib dih_toy.mtl
o Mball
v -0.523118 2.027497 0.207587
v -0.367026 2.022858 0.346172
v -0.352990 2.495182 0.346172
v -0.509083 2.499820 0.207587
v -0.353357 2.022452 0.352992
v -0.339322 2.494776 0.352992
v -0.203252 2.017992 0.401452
v -0.189217 2.490315 0.401452
v -0.039479 2.013125 0.401452
v -0.025443 2.485449 0.401452
v 0.110626 2.008665 0.352992
v 0.124662 2.480988 0.352992
v 0.138697 2.953312 0.352992
v -0.011408 2.957772 0.401452
v 0.138330 2.480582 0.346172
v 0.152366 2.952906 0.346172
v 0.294422 2.475944 0.207587
v 0.308458 2.948267 0.207587
v 0.302104 2.475715 0.195452
v 0.316139 2.948039 0.195452
v 0.356686 2.474093 0.062183
v 0.370721 2.946417 0.062183
v 0.356686 2.474093 -0.083222
v 0.370721 2.946417 -0.083222
v 0.302104 2.475715 -0.216491
v 0.316139 2.948039 -0.216491
v 0.294422 2.475944 -0.228626
v 0.308458 2.948267 -0.228626
v 0.287478 3.421632 -0.228626
v 0.330175 3.420363 -0.156871
v 0.152366 2.952906 -0.367211
v 0.166401 3.425230 -0.336123
v 0.138697 2.953312 -0.374031
v 0.085580 3.427631 -0.374031
v -0.011408 2.957772 -0.422491
v 0.002627 3.430096 -0.395883
v -0.175182 2.962639 -0.422491
v -0.161146 3.434963 -0.395883
v -0.156578 3.588699 -0.374031
v 0.007196 3.583833 -0.374031
v -0.244099 3.437428 -0.374031
v -0.324920 3.439829 -0.336123
v -0.311731 3.883672 -0.228626
v -0.297216 3.911747 -0.228626
v -0.147111 3.907286 -0.301845
v -0.445996 3.443427 -0.228626
v -0.488693 3.444696 -0.156871
v -0.484125 3.598432 -0.083222
v -0.393353 3.914604 -0.083222
v -0.310884 3.912153 -0.216491
v -0.513306 3.445427 -0.083222
v -0.513306 3.445427 0.062183
v -0.484125 3.598432 0.062183
v -0.488693 3.444696 0.135832
v -0.445996 3.443427 0.207587
v -0.311731 3.883672 0.207587
v -0.310884 3.912153 0.195452
v -0.393353 3.914604 0.062183
v -0.297216 3.911747 0.207587
v -0.244099 3.437428 0.352992
v -0.156578 3.588699 0.352992
v -0.147111 3.907286 0.280806
v -0.324920 3.439829 0.315084
v 0.016663 3.902420 0.280806
v 0.007196 3.583833 0.352992
v 0.085580 3.427631 0.352992
v 0.166401 3.425230 0.315084
v 0.179590 3.869072 0.207587
v 0.166768 3.897959 0.207587
v 0.287478 3.421632 0.207587
v 0.330175 3.420363 0.135832
v 0.334743 3.574099 0.062183
v 0.262905 3.895103 0.062183
v 0.180436 3.897553 0.195452
v 0.354787 3.419631 0.062183
v 0.354787 3.419631 -0.083222
v 0.334743 3.574099 -0.083222
v 0.262905 3.895103 -0.083222
v 0.186078 4.087413 -0.083222
v 0.186078 4.087413 0.062183
v 0.027719 4.274504 -0.083222
v 0.027719 4.274504 0.062183
v -0.136054 4.279370 -0.083222
v -0.136054 4.279370 0.062183
v -0.305243 4.102013 -0.083222
v -0.305243 4.102013 0.062183
v -0.141469 4.097147 -0.228626
v -0.141469 4.097147 0.207587
v 0.022305 4.092280 0.207587
v 0.022305 4.092280 -0.228626
v 0.016663 3.902420 -0.301845
v 0.166768 3.897959 -0.228626
v 0.180436 3.897553 -0.216491
v 0.179590 3.869072 -0.228626
v 0.002627 3.430096 0.374844
v -0.161146 3.434963 0.374844
v -0.175182 2.962639 0.401452
v -0.325287 2.967099 0.352992
v -0.338955 2.967505 0.346172
v -0.495047 2.972144 0.207587
v -0.502729 2.972372 0.195452
v -0.516764 2.500049 0.195452
v -0.557311 2.973994 0.062183
v -0.557311 2.973994 -0.083222
v -0.571346 2.501670 -0.083222
v -0.571346 2.501670 0.062183
v -0.502729 2.972372 -0.216491
v -0.516764 2.500049 -0.216491
v -0.509083 2.499820 -0.228626
v -0.495047 2.972144 -0.228626
v -0.338955 2.967505 -0.367211
v -0.352990 2.495182 -0.367211
v -0.339322 2.494776 -0.374031
v -0.325287 2.967099 -0.374031
v -0.189217 2.490315 -0.422491
v -0.353357 2.022452 -0.374031
v -0.203252 2.017992 -0.422491
v -0.039479 2.013125 -0.422491
v -0.025443 2.485449 -0.422491
v 0.110626 2.008665 -0.374031
v 0.124662 2.480988 -0.374031
v 0.138330 2.480582 -0.367211
v 0.124295 2.008258 -0.367211
v 0.280387 2.003620 -0.228626
v 0.115815 1.722886 -0.374031
v 0.110260 1.535935 -0.401419
v -0.053514 1.540801 -0.443816
v 0.162735 1.534375 -0.374031
v 0.268511 1.345221 -0.374031
v 0.261524 1.110099 -0.519435
v 0.099791 1.183644 -0.519435
v 0.407818 1.054352 -0.519435
v 0.427386 1.175525 -0.374031
v 0.423772 1.053878 -0.515234
v 0.587545 1.049011 -0.442462
v 0.588618 1.085116 -0.374031
v 0.647519 1.047229 -0.374031
v 0.749051 0.967816 -0.374031
v 0.745018 0.832120 -0.519435
v 0.585179 0.969398 -0.519435
v 0.901582 0.584628 -0.519435
v 0.907346 0.778592 -0.374031
v 0.909638 0.566699 -0.519435
v 1.012070 0.563655 -0.374031
v 0.906319 0.744020 -0.228626
v 0.991841 0.564257 -0.228626
v 0.903442 0.647223 -0.083222
v 0.939527 0.565811 -0.083222
v 0.748289 0.942176 -0.228626
v 0.746324 0.876078 -0.083222
v 0.611341 1.048304 -0.228626
v 0.587545 1.049011 -0.194255
v 0.586540 1.015200 -0.083222
v 0.586388 1.010077 0.062183
v 0.746056 0.867037 0.062183
v 0.548872 1.050160 -0.083222
v 0.544521 1.050290 0.062183
v 0.584762 1.049094 0.207587
v 0.587486 1.047017 0.207587
v 0.587545 1.049011 0.214793
v 0.588172 1.048993 0.352992
v 0.747610 0.919345 0.352992
v 0.747496 0.915506 0.207587
v 0.904994 0.699436 0.207587
v 0.905137 0.704264 0.352992
v 0.965187 0.565049 0.207587
v 0.967752 0.564973 0.352992
v 0.901057 0.566954 0.450145
v 0.930877 0.566068 0.062183
v 0.902923 0.629736 0.062183
v 0.987586 0.091642 0.062183
v 1.019316 0.090700 0.207587
v 0.995358 0.091411 -0.083222
v 0.876629 -0.255112 0.062183
v 0.876269 -0.267226 -0.083222
v 0.804197 -0.375649 -0.083222
v 0.798823 -0.375489 0.062183
v 0.874498 -0.326828 0.207587
v 0.842343 -0.376782 0.207587
v 0.874332 -0.332423 0.352992
v 0.845919 -0.376889 0.352992
v 1.021772 0.090626 0.352992
v 0.908229 0.094000 0.498396
v 0.883357 -0.028703 0.498396
v 0.887022 0.094631 0.513771
v 0.723248 0.099497 0.600632
v 0.709535 -0.361963 0.498396
v 0.700742 -0.372575 0.498396
v 0.593028 0.103367 0.643801
v 0.556034 -0.011413 0.643801
v 0.545439 -0.367960 0.565780
v 0.386079 -0.214569 0.643801
v 0.381665 -0.363093 0.605396
v 0.559474 0.104364 0.652740
v 0.395701 0.109231 0.683858
v 0.231927 0.114097 0.699271
v 0.220090 -0.284267 0.643801
v 0.068154 0.118964 0.700212
v 0.056209 -0.282985 0.643801
v -0.095620 0.123830 0.686924
v -0.105676 -0.214567 0.643801
v -0.259394 0.128697 0.658958
v -0.264157 -0.031587 0.643801
v -0.318550 0.130455 0.643801
v -0.109655 -0.348493 0.609043
v -0.273429 -0.343627 0.575573
v -0.081585 0.596154 0.658058
v -0.175941 0.598958 0.643801
v -0.248255 0.503530 0.643801
v -0.245358 0.601021 0.630831
v -0.409132 0.605887 0.581489
v -0.423167 0.133564 0.611009
v -0.567243 0.610586 0.498396
v -0.573528 0.589810 0.498396
v -0.586941 0.138430 0.531984
v -0.635156 0.139863 0.498396
v -0.593247 -0.073774 0.498396
v -0.628398 -0.333079 0.352992
v -0.600976 -0.333894 0.390700
v -0.750714 0.143297 0.359659
v -0.751401 0.120203 0.352992
v -0.754146 0.143399 0.352992
v -0.778183 0.144113 0.207587
v -0.755837 -0.029085 0.207587
v -0.742763 0.410874 0.352992
v -0.736679 0.615621 0.250001
v -0.741618 0.615767 0.207587
v -0.702602 0.614608 0.352992
v -0.560361 1.032918 0.352992
v -0.558870 1.083078 0.332041
v -0.626617 1.085091 0.207587
v -0.735948 0.640238 0.207587
v -0.541250 1.082554 0.352992
v -0.398943 0.948774 0.498396
v -0.395097 1.078211 0.460750
v -0.572906 0.610754 0.494359
v -0.302908 1.075472 0.498396
v -0.229118 1.147550 0.498396
v -0.217288 1.545668 0.415209
v -0.381061 1.550535 0.356331
v -0.053514 1.540801 0.421149
v -0.063458 1.206165 0.498396
v 0.110260 1.535935 0.377710
v 0.098965 1.155832 0.498396
v 0.157861 1.534520 0.352992
v 0.260361 1.070954 0.498396
v 0.268007 1.328270 0.352992
v 0.286599 1.057954 0.498396
v 0.423771 1.053878 0.457234
v 0.426661 1.151136 0.352992
v 0.259998 1.058744 0.504798
v 0.301440 1.530254 0.207587
v 0.274033 1.531068 0.250317
v 0.428621 1.217065 0.207587
v 0.342510 1.529033 0.062183
v 0.428913 1.226919 0.062183
v 0.341879 1.529052 -0.083222
v 0.428955 1.228317 -0.083222
v 0.302190 1.530231 -0.228626
v 0.428863 1.225219 -0.228626
v 0.587994 1.064119 -0.228626
v 0.279178 1.704200 -0.228626
v 0.288069 2.003392 -0.216491
v 0.342650 2.001770 -0.083222
v 0.274033 1.531068 -0.273736
v 0.342650 2.001770 0.062183
v 0.279092 1.701302 0.207587
v 0.280387 2.003620 0.207587
v 0.124295 2.008258 0.346172
v 0.115529 1.713272 0.352992
v 0.422189 1.000644 0.498396
v 0.587545 1.049011 0.353705
v 0.583302 0.906229 0.498396
v 0.457931 0.580122 0.643801
v 0.573510 0.576688 0.617670
v 0.410888 0.620336 0.643801
v 0.737283 0.571821 0.558600
v 0.742398 0.743930 0.498396
v 0.843480 0.568665 0.498396
v 0.409736 0.581554 0.652144
v 0.249431 0.703151 0.643801
v 0.245963 0.586421 0.668839
v 0.085880 0.715492 0.643801
v 0.082189 0.591287 0.670189
v -0.079453 0.667897 0.643801
v 0.096224 1.063611 0.532660
v 0.568214 0.398459 0.643801
v -0.067549 1.068478 0.539054
v -0.231323 1.073344 0.518692
v -0.386647 1.550701 0.352992
v -0.540592 1.555275 0.207587
v -0.546413 1.502287 0.207587
v -0.544835 1.555401 0.200414
v -0.648019 1.085727 0.062183
v -0.599525 1.557026 0.062183
v -0.643083 1.085580 -0.083222
v -0.599427 1.557024 -0.083222
v -0.617238 1.084812 -0.228626
v -0.544835 1.555401 -0.219741
v -0.547243 1.474348 -0.228626
v -0.539530 1.555244 -0.228626
v -0.534392 1.082350 -0.374031
v -0.558870 1.083078 -0.343020
v -0.385686 1.550672 -0.374031
v -0.381061 1.550535 -0.376826
v -0.395097 1.078211 -0.482383
v -0.312705 1.075763 -0.519435
v -0.217288 1.545668 -0.436856
v -0.228692 1.161872 -0.519435
v -0.062803 1.228202 -0.519435
v -0.067549 1.068478 -0.569617
v -0.231323 1.073344 -0.544856
v 0.096224 1.063611 -0.568462
v -0.236850 0.600768 -0.664840
v -0.245358 0.601021 -0.662909
v -0.077311 0.739968 -0.664840
v -0.409132 0.605887 -0.608774
v -0.398730 0.955954 -0.519435
v -0.563868 0.610485 -0.519435
v -0.423167 0.133564 -0.638749
v -0.586941 0.138430 -0.550102
v -0.573967 0.575041 -0.519435
v -0.625643 0.139580 -0.519435
v -0.731723 0.142733 -0.374031
v -0.686467 0.614128 -0.374031
v -0.572906 0.610754 -0.512204
v -0.561062 1.009314 -0.374031
v -0.723490 0.615229 -0.228626
v -0.606474 -0.333730 -0.374031
v -0.592324 -0.042712 -0.519435
v -0.600976 -0.333893 -0.382786
v -0.460512 -0.338068 -0.519435
v -0.438120 -0.369622 -0.519435
v -0.444577 -0.586923 -0.374031
v -0.601282 -0.344170 -0.374031
v -0.278964 -0.529880 -0.519435
v -0.284691 -0.722637 -0.374031
v -0.117501 -0.612514 -0.519435
v -0.122517 -0.781304 -0.374031
v 0.045368 -0.647833 -0.519435
v 0.041277 -0.785503 -0.374031
v 0.209081 -0.654736 -0.519435
v 0.205828 -0.764187 -0.374031
v 0.373790 -0.628115 -0.519435
v 0.370635 -0.734297 -0.374031
v 0.539753 -0.559313 -0.519435
v 0.536311 -0.675149 -0.374031
v 0.707411 -0.433466 -0.519435
v 0.703375 -0.569285 -0.374031
v 0.763020 -0.374425 -0.519435
v 0.872986 -0.377693 -0.399009
v 0.872551 -0.392328 -0.374031
v 0.883147 -0.377995 -0.374031
v 0.872986 -0.377693 -0.257897
v 1.048585 0.015371 -0.374031
v 1.050795 0.089764 -0.250489
v 1.043206 0.089989 -0.228626
v 0.873562 -0.358312 -0.228626
v 0.860585 -0.377325 -0.228626
v 1.061989 0.089431 -0.374031
v 1.050795 0.089764 -0.407515
v 1.058853 0.360938 -0.374031
v 0.878377 -0.196283 -0.519435
v 0.967459 0.092240 -0.519435
v 0.887021 0.094631 -0.578394
v 0.709213 -0.372826 -0.551437
v 0.723248 0.099497 -0.655656
v 0.545439 -0.367960 -0.615767
v 0.550717 -0.190325 -0.664840
v 0.696496 0.100292 -0.664840
v 0.381665 -0.363093 -0.650712
v 0.383110 -0.314476 -0.664840
v 0.228243 -0.358534 -0.664840
v 0.217892 -0.358227 -0.665354
v 0.231927 0.114097 -0.742294
v 0.395701 0.109230 -0.730236
v 0.093828 -0.354540 -0.664840
v 0.054343 -0.345802 -0.664840
v 0.068154 0.118964 -0.740195
v -0.107348 -0.270853 -0.664840
v -0.095620 0.123831 -0.724060
v -0.266323 -0.104494 -0.664840
v -0.259394 0.128697 -0.691744
v -0.350978 0.131418 -0.664840
v -0.273429 -0.343627 -0.603078
v -0.437203 -0.338760 -0.533558
v -0.245772 0.587089 -0.664840
v -0.109655 -0.348493 -0.642546
v 0.054118 -0.353360 -0.662636
v -0.081585 0.596154 -0.695206
v 0.082189 0.591287 -0.711933
v 0.088147 0.791786 -0.664840
v 0.245963 0.586421 -0.713924
v 0.252075 0.792120 -0.664840
v 0.409736 0.581554 -0.700444
v 0.414336 0.736365 -0.664840
v 0.573510 0.576688 -0.670372
v 0.574245 0.601428 -0.664840
v 0.594717 0.576057 -0.664840
v 0.559474 0.104364 -0.702540
v 0.423625 1.048957 -0.519435
v 0.259998 1.058744 -0.548667
v 0.217844 -0.359827 -0.664840
v 0.737283 0.571821 -0.617850
v 0.901057 0.566954 -0.525981
v 0.704096 -0.545010 -0.228626
v 0.705945 -0.482791 -0.083222
v 0.538446 -0.603295 -0.083222
v 0.536919 -0.654666 -0.228626
v 0.706062 -0.478845 0.062183
v 0.538451 -0.603122 0.062183
v 0.372099 -0.685011 0.062183
v 0.372172 -0.682557 -0.083222
v 0.205475 -0.776081 0.062183
v 0.205616 -0.771337 -0.083222
v 0.091739 -0.827219 -0.083222
v 0.103245 -0.827560 0.062183
v 0.205073 -0.789597 0.207587
v 0.106617 -0.827661 0.207587
v 0.205886 -0.762248 0.352992
v 0.041152 -0.789689 0.352992
v 0.040083 -0.825684 0.288591
v -0.122779 -0.790138 0.352992
v -0.123691 -0.820817 0.313435
v -0.285127 -0.737301 0.352992
v -0.287464 -0.815950 0.250775
v -0.328387 -0.814734 0.207587
v -0.445253 -0.609683 0.352992
v -0.448322 -0.712953 0.207587
v -0.602453 -0.383604 0.352992
v -0.605322 -0.480139 0.207587
v -0.672202 -0.331777 0.207587
v -0.667979 -0.331902 0.062183
v -0.605423 -0.483530 0.062183
v -0.659207 -0.332163 -0.083222
v -0.604874 -0.465051 -0.083222
v -0.448601 -0.722326 -0.083222
v -0.448980 -0.735087 0.062183
v -0.350944 -0.814064 -0.083222
v -0.365884 -0.813620 0.062183
v -0.290683 -0.815855 -0.228626
v -0.447497 -0.685187 -0.228626
v -0.287522 -0.817881 -0.228626
v -0.288691 -0.857232 -0.083222
v -0.124975 -0.864036 -0.228626
v -0.125840 -0.893157 -0.083222
v 0.039709 -0.838268 -0.228626
v 0.039274 -0.852900 -0.083222
v 0.072674 -0.826652 -0.228626
v 0.040083 -0.825684 -0.279896
v -0.123691 -0.820817 -0.315741
v -0.287464 -0.815950 -0.232488
v -0.604016 -0.436195 -0.228626
v -0.648584 -0.332479 -0.228626
v -0.752249 0.091669 -0.083222
v -0.751351 0.121890 -0.228626
v -0.753736 0.143387 -0.228626
v -0.757787 0.143507 -0.083222
v -0.754159 0.027377 0.062183
v -0.766555 0.143768 0.062183
v -0.738713 0.615681 0.062183
v -0.736679 0.615621 0.022297
v -0.738060 0.569135 -0.083222
v -0.731915 0.615479 -0.083222
v -0.739921 0.506505 -0.228626
v -0.736300 0.628383 0.062183
v -0.750714 0.143297 -0.281585
v -0.467395 -0.337863 0.498396
v -0.438348 -0.377290 0.498396
v -0.437203 -0.338760 0.514652
v -0.278950 -0.529420 0.498396
v -0.288160 -0.839354 0.207587
v -0.125467 -0.880576 0.207587
v -0.126070 -0.900892 0.062183
v -0.288984 -0.867103 0.062183
v 0.039066 -0.859900 0.062183
v 0.039261 -0.853349 0.207587
v 0.371012 -0.721619 0.207587
v 0.370936 -0.724165 0.352992
v 0.536989 -0.652334 0.207587
v 0.536873 -0.656218 0.352992
v 0.704460 -0.532767 0.207587
v 0.704333 -0.537033 0.352992
v 0.541150 -0.512290 0.498396
v 0.709213 -0.372826 0.493171
v 0.374797 -0.594244 0.498396
v 0.209783 -0.631125 0.498396
v 0.045812 -0.632871 0.498396
v 0.217892 -0.358227 0.624031
v 0.054118 -0.353360 0.624958
v 0.371170 -0.716273 -0.228626
v 0.205377 -0.779376 -0.228626
v -0.379829 1.591988 -0.374031
v -0.523118 2.027497 -0.228626
v -0.367026 2.022858 -0.367211
v -0.585381 2.029347 -0.083222
v -0.530799 2.027725 -0.216491
v -0.585381 2.029347 0.062183
v -0.530799 2.027725 0.195452
v 0.895899 0.393387 0.498396
v 0.587557 1.049411 0.352992
v 0.288069 2.003392 0.195452
v -0.379648 1.598088 0.352992
v -0.117280 -0.605078 0.498396
vn -0.7600 0.0226 0.6495
vn -0.7613 0.0253 0.6479
vn -0.5610 0.0236 0.8275
vn -0.5580 0.0166 0.8297
vn -0.3810 0.0199 0.9244
vn -0.3772 0.0112 0.9261
vn -0.1656 0.0188 0.9860
vn -0.1544 0.0046 0.9880
vn 0.1540 0.0170 0.9879
vn 0.1544 -0.0046 0.9880
vn 0.3946 0.0089 0.9188
vn 0.3772 -0.0112 0.9261
vn 0.3763 0.0162 0.9264
vn 0.1493 0.0214 0.9886
vn 0.5580 -0.0166 0.8297
vn 0.5497 0.0111 0.8353
vn 0.7600 -0.0226 0.6495
vn 0.7679 0.0056 0.6405
vn 0.8878 -0.0264 0.4595
vn 0.8892 0.0031 0.4576
vn 0.9804 -0.0291 0.1947
vn 0.9823 -0.0001 0.1872
vn 0.9804 -0.0291 -0.1947
vn 0.9823 -0.0002 -0.1874
vn 0.8878 -0.0264 -0.4595
vn 0.8892 0.0031 -0.4576
vn 0.7600 -0.0226 -0.6495
vn 0.7679 0.0056 -0.6405
vn 0.7713 0.1019 -0.6283
vn 0.8956 0.0992 -0.4337
vn 0.5497 0.0111 -0.8353
vn 0.5424 0.1051 -0.8335
vn 0.3763 0.0162 -0.9264
vn 0.3641 0.1063 -0.9253
vn 0.1493 0.0214 -0.9886
vn 0.1384 0.0893 -0.9863
vn -0.1477 0.0303 -0.9886
vn -0.1329 0.0974 -0.9863
vn 0.1834 0.1784 -0.9667
vn -0.1725 0.1889 -0.9667
vn -0.3572 0.1278 -0.9253
vn -0.4928 0.3370 -0.8022
vn -0.5352 0.1371 -0.8335
vn -0.6351 0.2528 -0.7299
vn -0.2053 0.2794 -0.9380
vn -0.7639 0.1475 -0.6283
vn -0.9067 0.3283 -0.2649
vn -0.8881 0.1522 -0.4337
vn -0.9482 0.2317 -0.2171
vn -0.7114 0.3553 -0.6064
vn -0.9761 0.1336 -0.1712
vn -0.9761 0.1336 0.1712
vn -0.9482 0.2317 0.2171
vn -0.8881 0.1522 0.4337
vn -0.9067 0.3283 0.2649
vn -0.7639 0.1475 0.6283
vn -0.6351 0.2528 0.7299
vn -0.7211 0.3495 0.5982
vn -0.4970 0.3356 0.8002
vn -0.3572 0.1278 0.9253
vn -0.1725 0.1889 0.9667
vn -0.2053 0.2794 0.9380
vn -0.5352 0.1371 0.8335
vn 0.1834 0.1784 0.9667
vn 0.2215 0.2667 0.9380
vn 0.5120 0.3071 0.8022
vn 0.3641 0.1063 0.9253
vn 0.5424 0.1051 0.8335
vn 0.6490 0.2146 0.7299
vn 0.7713 0.1019 0.6283
vn 0.9246 0.2739 0.2649
vn 0.8956 0.0992 0.4337
vn 0.9603 0.1750 0.2171
vn 0.7312 0.3124 0.6064
vn 0.9823 0.0754 0.1712
vn 0.9823 0.0754 -0.1712
vn 0.9603 0.1750 -0.2171
vn 0.9246 0.2739 -0.2649
vn 0.8229 0.4678 -0.3225
vn 0.8170 0.4701 0.3340
vn 0.4420 0.7626 -0.4723
vn 0.4426 0.7623 0.4723
vn -0.3966 0.7872 -0.4723
vn -0.3960 0.7875 0.4723
vn -0.7876 0.5178 -0.3340
vn -0.7936 0.5159 0.3225
vn -0.2644 0.4692 -0.8426
vn 0.2918 0.4527 0.8426
vn -0.2524 0.4660 0.8480
vn 0.2796 0.4502 -0.8480
vn 0.2215 0.2667 -0.9380
vn 0.5160 0.3055 -0.8002
vn 0.7406 0.3060 -0.5982
vn 0.6490 0.2146 -0.7299
vn 0.1384 0.0893 0.9863
vn -0.1329 0.0974 0.9863
vn -0.1477 0.0303 0.9886
vn -0.3747 0.0385 0.9264
vn -0.5480 0.0439 0.8353
vn -0.7662 0.0512 0.6405
vn -0.8874 0.0559 0.4576
vn -0.8878 0.0264 0.4595
vn -0.9806 0.0582 0.1872
vn -0.9806 0.0582 -0.1872
vn -0.9804 0.0291 -0.1946
vn -0.9804 0.0291 0.1947
vn -0.8878 0.0264 -0.4595
vn -0.8874 0.0559 -0.4576
vn -0.7662 0.0512 -0.6405
vn -0.7600 0.0226 -0.6495
vn -0.5580 0.0166 -0.8297
vn -0.5480 0.0438 -0.8353
vn -0.3747 0.0385 -0.9264
vn -0.3772 0.0112 -0.9261
vn -0.1544 0.0046 -0.9880
vn -0.1600 0.0217 -0.9869
vn -0.3816 0.0205 -0.9241
vn 0.1544 -0.0046 -0.9880
vn 0.1435 0.0189 -0.9895
vn 0.3772 -0.0112 -0.9261
vn 0.3890 0.0081 -0.9212
vn 0.5427 0.0090 -0.8399
vn 0.5580 -0.0166 -0.8297
vn 0.7647 0.0026 -0.6444
vn 0.7706 0.0501 -0.6353
vn 0.3848 0.1673 -0.9077
vn 0.0930 0.1393 -0.9859
vn 0.5461 0.1961 -0.8144
vn 0.1910 0.3418 -0.9202
vn 0.5626 0.4313 -0.7053
vn 0.2782 0.4547 -0.8461
vn 0.5696 0.6503 -0.5026
vn 0.2294 0.5126 -0.8274
vn 0.2675 0.6906 -0.6719
vn 0.5186 0.8160 -0.2555
vn 0.4995 0.6425 -0.5811
vn 0.5913 0.7690 -0.2431
vn 0.3544 0.4793 -0.8029
vn 0.6928 0.6691 -0.2689
vn 0.4886 0.4270 -0.7609
vn 0.8269 0.5045 -0.2485
vn 0.6252 0.3511 -0.6970
vn 0.9423 0.2489 -0.2237
vn 0.6929 0.1907 -0.6954
vn 0.9468 0.2312 0.2240
vn 0.8360 0.5021 0.2212
vn 0.9514 0.2433 0.1887
vn 0.8589 0.4777 0.1849
vn 0.6932 0.6787 0.2425
vn 0.7340 0.6531 0.1865
vn 0.5768 0.7841 0.2290
vn 0.6483 0.7128 0.2676
vn 0.6608 0.7372 0.1410
vn 0.7538 0.6503 -0.0944
vn 0.6698 0.7374 -0.0879
vn 0.7540 0.6508 0.0891
vn 0.7600 0.6478 -0.0521
vn 0.6681 0.7402 -0.0756
vn 0.6551 0.7385 -0.1593
vn 0.9496 0.3130 -0.0144
vn 0.5937 0.7346 0.3285
vn 0.6824 0.6225 0.3832
vn 0.7363 0.6646 -0.1271
vn 0.8174 0.4710 0.3317
vn 0.8661 0.4853 -0.1201
vn 0.9362 0.2185 0.2751
vn 0.9659 0.2312 -0.1169
vn 0.7384 0.2461 0.6279
vn 0.9661 0.2446 -0.0823
vn 0.8761 0.4746 -0.0850
vn 0.9905 -0.0854 -0.1076
vn 0.9931 -0.0853 -0.0807
vn 0.9797 -0.0894 0.1792
vn 0.8959 -0.4147 0.1592
vn 0.9083 -0.4094 -0.0858
vn 0.7887 -0.6055 -0.1061
vn 0.7769 -0.6077 0.1648
vn 0.7964 -0.5901 -0.1325
vn 0.9007 -0.4194 -0.1133
vn 0.7628 -0.5180 0.3871
vn 0.8559 -0.3856 0.3447
vn 0.9587 -0.0818 0.2724
vn 0.7110 -0.0761 0.6991
vn 0.6184 -0.2372 0.7492
vn 0.5052 -0.0524 0.8614
vn 0.3768 -0.0604 0.9243
vn 0.4636 -0.2849 0.8390
vn 0.3370 -0.0519 0.9401
vn 0.3961 -0.3659 0.8422
vn 0.3159 -0.2911 0.9030
vn 0.2808 -0.1580 0.9467
vn 0.1665 -0.3153 0.9343
vn 0.1475 -0.1819 0.9722
vn 0.2034 -0.0301 0.9786
vn 0.1296 -0.0291 0.9911
vn 0.0453 -0.0332 0.9984
vn 0.0438 -0.1942 0.9800
vn -0.0339 -0.0321 0.9989
vn -0.0436 -0.1923 0.9804
vn -0.1089 -0.0272 0.9937
vn -0.1377 -0.1756 0.9748
vn -0.2027 -0.0244 0.9789
vn -0.2514 -0.1457 0.9569
vn -0.3091 -0.0359 0.9504
vn -0.2797 -0.2662 0.9224
vn -0.1537 -0.3000 0.9415
vn -0.2301 0.0786 0.9700
vn -0.1001 0.1288 0.9866
vn -0.1400 0.1504 0.9787
vn -0.2395 0.1617 0.9573
vn -0.3710 0.1435 0.9175
vn -0.3813 -0.0418 0.9235
vn -0.5938 0.0999 0.7984
vn -0.5240 0.1712 0.8343
vn -0.4833 -0.0256 0.8751
vn -0.6914 -0.0287 0.7219
vn -0.5874 -0.1829 0.7884
vn -0.8524 -0.2937 0.4326
vn -0.7267 -0.2978 0.6190
vn -0.8994 -0.1783 0.3991
vn -0.8093 -0.0465 0.5856
vn -0.9534 -0.0287 0.3005
vn -0.9989 -0.0233 0.0405
vn -0.9783 -0.1915 0.0791
vn -0.9670 0.1603 0.1980
vn -0.8919 0.0967 0.4419
vn -0.9892 0.1412 0.0397
vn -0.8341 0.1873 0.5189
vn -0.9367 0.2079 0.2816
vn -0.7349 0.2684 0.6228
vn -0.7974 0.2379 0.5545
vn -0.9685 0.2247 0.1076
vn -0.6565 0.2386 0.7156
vn -0.4135 0.2502 0.8755
vn -0.4669 0.2378 0.8518
vn -0.6718 0.1860 0.7170
vn -0.3021 0.2285 0.9255
vn -0.4459 0.1375 0.8845
vn -0.1811 0.2427 0.9530
vn -0.1780 0.1224 0.9764
vn 0.0212 0.2629 0.9646
vn 0.0919 0.1306 0.9872
vn 0.1640 0.3074 0.9373
vn 0.3076 0.1722 0.9358
vn 0.2567 0.4002 0.8797
vn 0.5363 0.1919 0.8219
vn 0.5822 0.4019 0.7068
vn 0.2438 0.4298 0.8694
vn 0.3819 0.5908 0.7107
vn 0.5947 0.5925 0.5434
vn 0.1699 0.3669 0.9146
vn 0.8891 0.2393 0.3902
vn 0.7042 0.2126 0.6775
vn 0.8648 0.4892 0.1132
vn 0.9059 0.4226 0.0281
vn 0.9803 0.1423 0.1369
vn 0.9100 0.4130 -0.0366
vn 0.9852 0.1354 -0.1053
vn 0.8274 0.5367 -0.1654
vn 0.8945 0.1971 -0.4014
vn 0.6089 0.7752 0.1683
vn 0.9813 -0.0100 -0.1921
vn 0.8283 0.0529 -0.5577
vn 0.8778 -0.0038 -0.4790
vn 0.7856 0.1682 -0.5954
vn 0.9799 -0.0160 0.1988
vn 0.8555 0.0540 0.5150
vn 0.7636 0.0015 0.6456
vn 0.4860 0.0573 0.8721
vn 0.5436 0.0073 0.8393
vn 0.2449 0.4580 0.8545
vn 0.3683 0.4472 0.8151
vn 0.4948 0.6297 0.5989
vn 0.1668 0.1654 0.9720
vn 0.3034 0.1943 0.9329
vn 0.1820 0.2693 0.9457
vn 0.3930 0.1646 0.9047
vn 0.5169 0.3894 0.7623
vn 0.5407 0.2187 0.8123
vn 0.1291 0.1240 0.9838
vn 0.0567 0.1290 0.9900
vn 0.0983 0.2716 0.9574
vn -0.0290 0.1294 0.9912
vn 0.0054 0.2531 0.9674
vn -0.0907 0.2306 0.9688
vn 0.0774 0.3163 0.9455
vn 0.4414 0.0716 0.8944
vn -0.0503 0.2765 0.9597
vn -0.1983 0.2518 0.9473
vn -0.6141 0.1248 0.7793
vn -0.8716 0.1859 0.4537
vn -0.7738 0.0923 0.6267
vn -0.9093 0.0763 0.4091
vn -0.9847 0.1585 0.0721
vn -0.9801 0.0643 0.1878
vn -0.9828 0.0700 -0.1707
vn -0.9823 0.1512 -0.1108
vn -0.8882 0.0669 -0.4546
vn -0.9347 0.1807 -0.3061
vn -0.7583 0.1316 -0.6385
vn -0.7915 0.0833 -0.6054
vn -0.6897 0.2295 -0.6867
vn -0.8566 0.2035 -0.4741
vn -0.5947 0.1204 -0.7949
vn -0.4812 0.2433 -0.8422
vn -0.4658 0.1233 -0.8763
vn -0.1889 0.1253 -0.9740
vn -0.3098 0.2373 -0.9207
vn -0.1705 0.2476 -0.9537
vn 0.0077 0.2774 -0.9607
vn -0.0787 0.2964 -0.9518
vn -0.2086 0.2625 -0.9421
vn 0.0517 0.3504 -0.9352
vn -0.1816 0.1544 -0.9712
vn -0.2742 0.1740 -0.9458
vn -0.1398 0.2530 -0.9573
vn -0.4009 0.1450 -0.9046
vn -0.4424 0.2563 -0.8594
vn -0.5523 0.1747 -0.8151
vn -0.4037 -0.0446 -0.9138
vn -0.5308 -0.0303 -0.8470
vn -0.7008 0.1078 -0.7052
vn -0.7369 -0.0330 -0.6752
vn -0.7307 0.1825 -0.6579
vn -0.9130 -0.0515 -0.4047
vn -0.8727 0.1585 -0.4619
vn -0.7413 0.2570 -0.6200
vn -0.9679 0.1648 -0.1896
vn -0.6450 -0.2007 -0.7373
vn -0.8760 -0.2921 -0.3838
vn -0.7444 -0.3373 -0.5762
vn -0.5642 -0.2880 -0.7738
vn -0.7851 -0.4379 -0.4381
vn -0.4967 -0.4095 -0.7653
vn -0.6330 -0.5290 -0.5652
vn -0.3320 -0.4647 -0.8209
vn -0.4087 -0.6461 -0.6447
vn -0.1705 -0.5173 -0.8387
vn -0.1632 -0.7455 -0.6462
vn -0.0511 -0.5613 -0.8260
vn 0.0306 -0.8259 -0.5630
vn 0.0500 -0.5915 -0.8047
vn 0.1713 -0.8998 -0.4013
vn 0.1657 -0.5946 -0.7868
vn 0.2740 -0.9127 -0.3031
vn 0.3133 -0.5696 -0.7599
vn 0.4424 -0.8539 -0.2741
vn 0.4659 -0.5273 -0.7106
vn 0.6244 -0.7395 -0.2515
vn 0.5172 -0.3766 -0.7686
vn 0.7831 -0.4199 -0.4588
vn 0.7487 -0.6376 -0.1815
vn 0.8834 -0.4367 -0.1698
vn 0.7956 -0.5896 0.1391
vn 0.9572 -0.0891 0.2754
vn 0.9423 -0.2856 -0.1748
vn 0.9455 -0.0814 0.3154
vn 0.8725 -0.4251 0.2408
vn 0.7482 -0.6090 0.2634
vn 0.9904 -0.0784 -0.1136
vn 0.8518 -0.1056 -0.5132
vn 0.9815 0.1193 -0.1497
vn 0.7307 -0.0696 -0.6792
vn 0.6257 -0.2751 -0.7300
vn 0.5005 -0.0564 -0.8639
vn 0.3976 -0.3061 -0.8650
vn 0.3778 -0.0634 -0.9237
vn 0.3158 -0.0584 -0.9470
vn 0.2826 -0.3244 -0.9027
vn 0.2503 -0.1920 -0.9489
vn 0.1339 -0.3474 -0.9281
vn 0.1129 -0.2100 -0.9712
vn 0.0623 -0.2759 -0.9592
vn 0.1115 -0.0421 -0.9929
vn 0.0217 -0.2259 -0.9739
vn 0.0298 -0.0453 -0.9985
vn -0.0260 -0.2734 -0.9615
vn -0.0721 -0.2114 -0.9747
vn -0.0537 -0.0418 -0.9977
vn -0.1346 -0.0344 -0.9903
vn -0.1556 -0.1972 -0.9679
vn -0.2281 -0.0233 -0.9734
vn -0.3263 -0.1707 -0.9297
vn -0.3419 -0.0406 -0.9389
vn -0.3235 -0.2876 -0.9015
vn -0.4433 -0.2571 -0.8587
vn -0.3521 0.1050 -0.9301
vn -0.1769 -0.3246 -0.9292
vn -0.0906 -0.3429 -0.9350
vn -0.0487 0.1359 -0.9895
vn -0.1380 0.1333 -0.9814
vn -0.0185 0.2771 -0.9607
vn 0.0718 0.3001 -0.9512
vn 0.0367 0.1355 -0.9901
vn 0.1614 0.3000 -0.9402
vn 0.1292 0.1321 -0.9828
vn 0.2442 0.2766 -0.9294
vn 0.2189 0.1275 -0.9674
vn 0.2892 0.1664 -0.9427
vn 0.2076 -0.0370 -0.9775
vn 0.2293 0.5046 -0.8323
vn 0.1470 0.4066 -0.9017
vn 0.0151 -0.3689 -0.9293
vn 0.3874 0.1719 -0.9057
vn 0.5300 0.1641 -0.8320
vn 0.6389 -0.7405 0.2085
vn 0.6604 -0.7344 0.1565
vn 0.4575 -0.8652 0.2054
vn 0.4976 -0.8552 0.1449
vn 0.6725 -0.7305 -0.1188
vn 0.5096 -0.8498 -0.1344
vn 0.4283 -0.8992 0.0898
vn 0.4368 -0.8928 -0.1102
vn 0.4312 -0.9021 0.0177
vn 0.4393 -0.8961 -0.0633
vn 0.4253 -0.9047 -0.0258
vn 0.4192 -0.9072 -0.0359
vn 0.3532 -0.9252 0.1390
vn 0.3495 -0.9363 0.0339
vn 0.0783 -0.7863 0.6129
vn 0.1910 -0.8589 0.4751
vn 0.2787 -0.8505 0.4460
vn -0.0958 -0.8426 0.5299
vn -0.1335 -0.7079 0.6935
vn -0.3907 -0.7610 0.5179
vn -0.3701 -0.6254 0.6870
vn -0.5952 -0.5310 0.6031
vn -0.5722 -0.7516 0.3281
vn -0.7314 -0.6267 0.2690
vn -0.8647 -0.4714 0.1734
vn -0.7569 -0.4410 0.4822
vn -0.9402 -0.3185 0.1204
vn -0.9510 -0.3042 -0.0562
vn -0.8898 -0.4560 -0.0193
vn -0.9536 -0.2931 -0.0687
vn -0.8909 -0.4476 -0.0768
vn -0.7743 -0.6219 -0.1169
vn -0.7763 -0.6302 0.0133
vn -0.6208 -0.7707 -0.1437
vn -0.6277 -0.7774 0.0404
vn -0.7356 -0.6116 -0.2913
vn -0.5739 -0.7451 -0.3398
vn -0.3976 -0.8579 -0.3255
vn -0.4122 -0.8997 -0.1438
vn -0.0524 -0.9509 -0.3049
vn -0.0035 -0.9924 -0.1233
vn 0.2588 -0.9437 -0.2061
vn 0.3250 -0.9426 -0.0766
vn 0.3355 -0.9331 -0.1296
vn 0.1340 -0.9259 -0.3531
vn -0.1182 -0.8732 -0.4728
vn -0.4260 -0.7765 -0.4643
vn -0.8707 -0.4492 -0.2002
vn -0.9432 -0.2945 -0.1537
vn -0.9821 -0.1641 -0.0926
vn -0.9856 -0.1587 -0.0575
vn -0.9990 -0.0271 -0.0355
vn -0.9987 -0.0318 -0.0395
vn -0.9980 -0.0220 -0.0591
vn -0.9829 -0.1699 -0.0703
vn -0.9916 0.1212 -0.0456
vn -0.9907 0.1283 -0.0446
vn -0.9954 0.0904 -0.0302
vn -0.9842 0.1655 -0.0628
vn -0.9873 0.0839 -0.1351
vn -0.9796 0.2007 -0.0132
vn -0.9772 -0.0655 -0.2018
vn -0.5048 -0.2822 0.8158
vn -0.4489 -0.3980 0.8001
vn -0.3944 -0.2476 0.8850
vn -0.2966 -0.4443 0.8453
vn -0.3791 -0.8698 0.3159
vn -0.0386 -0.9519 0.3039
vn -0.4073 -0.9120 0.0491
vn 0.0034 -0.9993 0.0365
vn 0.3282 -0.9446 0.0033
vn 0.2660 -0.9400 0.2138
vn 0.3830 -0.9192 -0.0910
vn 0.3045 -0.8650 0.3989
vn 0.4933 -0.8574 -0.1465
vn 0.4691 -0.7996 0.3749
vn 0.6701 -0.7295 -0.1370
vn 0.6377 -0.6850 0.3523
vn 0.3356 -0.5213 0.7846
vn 0.5602 -0.4492 0.6960
vn 0.1897 -0.5514 0.8124
vn 0.0744 -0.5520 0.8305
vn -0.0247 -0.5272 0.8494
vn 0.0491 -0.3263 0.9440
vn -0.0491 -0.3214 0.9457
vn 0.3537 -0.9353 0.0105
vn 0.3535 -0.9261 0.1319
vn -0.2688 0.0263 -0.9628
vn -0.5599 0.0229 -0.8282
vn -0.7640 0.0263 -0.6447
vn -0.9806 0.0295 -0.1938
vn -0.8899 0.0278 -0.4553
vn -0.9807 0.0297 0.1931
vn -0.8901 0.0284 0.4548
vn 0.6343 0.0888 0.7680
vn 0.5449 0.7696 0.3329
vn 0.8878 -0.0153 0.4599
vn -0.5055 0.0476 0.8615
vn -0.1413 -0.4897 0.8604
s 1
f 4//1 1//2 2//3 3//4
f 2//3 5//5 6//6 3//4
f 6//6 5//5 7//7 8//8
f 7//7 9//9 10//10 8//8
f 9//9 11//11 12//12 10//10
f 10//10 12//12 13//13 14//14
f 13//13 12//12 15//15 16//16
f 15//15 17//17 18//18 16//16
f 18//18 17//17 19//19 20//20
f 19//19 21//21 22//22 20//20
f 21//21 23//23 24//24 22//22
f 24//24 23//23 25//25 26//26
f 25//25 27//27 28//28 26//26
f 26//26 28//28 29//29 30//30
f 29//29 28//28 31//31 32//32
f 31//31 33//33 34//34 32//32
f 34//34 33//33 35//35 36//36
f 36//36 35//35 37//37 38//38
f 40//39 36//36 38//38 39//40
f 38//38 41//41 39//40
f 44//42 41//41 42//43 43//44
f 39//40 41//41 44//42 45//45
f 42//43 46//46 43//44
f 49//47 46//46 47//48 48//49
f 43//44 46//46 49//47 50//50
f 47//48 51//51 48//49
f 48//49 51//51 52//52 53//53
f 53//53 52//52 54//54
f 58//55 55//56 56//57 57//58
f 54//54 55//56 58//55 53//53
f 56//57 59//59 57//58
f 59//59 60//60 61//61 62//62
f 63//63 60//60 59//59 56//57
f 65//64 64//65 62//62 61//61
f 69//66 66//67 67//68 68//69
f 65//64 66//67 69//66 64//65
f 67//68 70//70 68//69
f 73//71 70//70 71//72 72//73
f 68//69 70//70 73//71 74//74
f 71//72 75//75 72//73
f 75//75 76//76 77//77 72//73
f 77//77 76//76 30//30
f 77//77 78//78 73//71 72//73
f 73//71 78//78 79//79 80//80
f 80//80 79//79 81//81 82//82
f 82//82 81//81 83//83 84//84
f 84//84 83//83 85//85 86//86
f 85//85 49//47 58//55 86//86
f 83//83 44//42 50//50 85//85
f 87//87 44//42 83//83
f 89//88 82//82 84//84 88//89
f 81//81 90//90 87//87 83//83
f 90//90 91//91 45//45 87//87
f 90//90 92//92 91//91
f 82//82 69//66 74//74 80//80
f 89//88 69//66 82//82
f 79//79 92//92 90//90 81//81
f 93//93 92//92 79//79
f 94//94 92//92 93//93
f 79//79 78//78 93//93
f 74//74 73//71 80//80
f 95//95 66//67 65//64
f 74//74 69//66 68//69
f 64//65 69//66 89//88
f 96//96 95//95 65//64 61//61
f 97//97 14//14 95//95 96//96
f 60//60 98//98 97//97 96//96
f 62//62 64//65 89//88 88//89
f 61//61 60//60 96//96
f 88//89 59//59 62//62
f 99//99 98//98 60//60 63//63
f 55//56 100//100 99//99 63//63
f 56//57 55//56 63//63
f 86//86 58//55 57//58
f 101//101 100//100 55//56 54//54
f 102//102 4//1 100//100 101//101
f 52//52 103//103 101//101 54//54
f 51//51 104//104 103//103 52//52
f 104//104 105//105 106//106 103//103
f 108//107 105//105 104//104 107//108
f 110//109 109//110 108//107 107//108
f 112//111 109//110 110//109 111//112
f 114//113 113//114 112//111 111//112
f 115//115 113//114 114//113 37//37
f 117//116 116//117 113//114 115//115
f 119//118 118//119 117//116 115//115
f 121//120 120//121 118//119 119//118
f 123//122 120//121 121//120 122//123
f 27//27 124//124 123//122 122//123
f 125//125 120//121 123//122
f 120//121 126//126 127//127 118//119
f 125//125 126//126 120//121
f 125//125 128//128 126//126
f 131//129 128//128 129//130 130//131
f 126//126 128//128 131//129
f 133//132 132//133 130//131 129//130
f 134//134 132//133 133//132
f 136//135 135//136 134//134 133//132
f 136//135 137//137 135//136
f 140//138 137//137 138//139 139//140
f 135//136 137//137 140//138
f 142//141 141//142 139//140 138//139
f 144//143 143//144 141//142 142//141
f 146//145 144//143 142//141 145//146
f 148//147 146//145 145//146 147//148
f 147//148 145//146 149//149 150//150
f 150//150 151//151 152//152 153//153
f 149//149 151//151 150//150
f 155//154 150//150 153//153 154//155
f 153//153 156//156 157//157 154//155
f 154//155 157//157 158//158 159//159
f 159//159 158//158 160//160
f 159//159 161//161 162//162 163//163
f 160//160 161//161 159//159
f 165//164 164//165 163//163 162//162
f 167//166 166//167 164//165 165//164
f 168//168 167//166 165//164
f 166//167 169//169 170//170 164//165
f 172//171 171//172 169//169 166//167
f 171//172 173//173 148//147 169//169
f 175//174 173//173 171//172 174//175
f 177//176 176//177 175//174 174//175
f 179//178 177//176 174//175 178//179
f 181//180 179//178 178//179 180//181
f 178//179 172//171 182//182 180//181
f 180//181 182//182 183//183 184//184
f 184//184 183//183 185//185
f 184//184 185//185 186//186 187//187
f 189//188 188//189 187//187 186//186
f 191//190 188//189 189//188 190//191
f 193//192 191//190 190//191 192//193
f 190//191 194//194 195//195 192//193
f 192//193 195//195 196//196 197//197
f 197//197 196//196 198//198 199//199
f 199//199 198//198 200//200 201//201
f 201//201 200//200 202//202 203//203
f 202//202 204//204 203//203
f 206//205 205//206 201//201 203//203
f 209//207 200//200 207//208 208//209
f 202//202 200//200 209//207
f 209//207 208//209 210//210
f 211//211 204//204 209//207 210//210
f 212//212 204//204 211//211
f 214//213 212//212 211//211 213//214
f 215//215 212//212 214//213
f 214//213 216//216 215//215
f 215//215 216//216 217//217
f 216//216 218//218 219//219 217//217
f 221//220 218//218 216//216 220//221
f 220//221 222//222 221//220
f 222//222 223//223 224//224 221//220
f 226//225 223//223 222//222 225//226
f 227//227 223//223 226//225
f 225//226 228//228 226//225
f 231//229 228//228 229//230 230//231
f 226//225 228//228 231//229 232//232
f 229//230 233//233 230//231
f 233//233 213//214 234//234 235//235
f 236//236 213//214 233//233 229//230
f 234//234 237//237 235//235
f 240//238 237//237 238//239 239//240
f 235//235 237//237 240//238
f 242//241 241//242 239//240 238//239
f 244//243 243//244 241//242 242//241
f 246//245 245//246 243//244 244//243
f 247//247 245//246 246//245
f 247//247 248//248 249//249 250//250
f 246//245 248//248 247//247
f 251//251 248//248 246//245
f 250//250 252//252 253//253 247//247
f 254//254 252//252 250//250
f 256//255 255//256 252//252 254//254
f 258//257 257//258 255//256 256//255
f 260//259 259//260 257//258 258//257
f 260//259 156//156 152//152 261//261
f 258//257 156//156 260//259
f 264//262 259//260 262//263 263//264
f 257//258 259//260 264//262
f 262//263 124//124 263//264
f 262//263 259//260 265//265
f 255//256 257//258 264//262 266//266
f 253//253 252//252 267//267
f 268//268 245//246 253//253 267//267
f 270//269 245//246 268//268 269//270
f 269//270 11//11 270//269
f 249//249 248//248 271//271
f 273//272 272//273 249//249 271//271
f 271//271 274//274 275//275 273//272
f 276//276 274//274 271//271
f 275//275 277//277 278//278 273//272
f 277//277 279//279 278//278
f 280//280 274//274 276//276
f 282//281 280//280 276//276 281//282
f 284//283 282//281 281//282 283//284
f 207//208 284//283 283//284 285//285
f 281//282 251//251 286//286 283//284
f 275//275 274//274 287//287
f 286//286 251//251 246//245 244//243
f 253//253 245//246 247//247
f 288//288 286//286 244//243 242//241
f 289//289 288//288 242//241 238//239
f 238//239 237//237 289//289
f 290//290 233//233 235//235 240//238
f 292//291 233//233 290//290 291//292
f 230//231 233//233 292//291
f 292//291 291//292 293//293
f 293//293 294//294 231//229 292//291
f 295//295 294//294 293//293
f 297//296 296//297 294//294 295//295
f 299//298 298//299 296//297 297//296
f 300//300 298//299 299//298
f 299//298 301//301 300//300
f 301//301 302//302 303//303 300//300
f 304//304 302//302 301//301
f 306//305 302//302 304//304 305//306
f 308//307 307//308 306//305 305//306
f 309//309 307//308 308//307
f 308//307 127//127 310//310 309//309
f 310//310 311//311 312//312 309//309
f 131//129 313//313 311//311 310//310
f 311//311 314//314 315//315 312//312
f 316//316 314//314 311//311
f 307//308 315//315 317//317 318//318
f 312//312 315//315 307//308
f 317//317 319//319 318//318
f 319//319 320//320 321//321 322//322
f 317//317 320//320 319//319
f 321//321 323//323 322//322
f 326//324 323//323 324//325 325//326
f 322//322 323//323 326//324
f 326//324 325//326 327//327
f 303//303 325//326 328//328 298//299
f 327//327 325//326 303//303
f 330//329 329//330 324//325 323//323
f 331//331 329//330 330//329
f 330//329 332//332 331//331
f 335//333 332//332 333//334 334//335
f 331//331 332//332 335//333
f 333//334 336//336 337//337 334//335
f 336//336 338//338 339//339 337//337
f 338//338 340//340 341//341 339//339
f 340//340 342//342 343//343 341//341
f 342//342 344//344 345//345 343//343
f 344//344 346//346 347//347 345//345
f 346//346 348//348 349//349 347//347
f 349//349 350//350 351//351 352//352
f 348//348 350//350 349//349
f 351//351 353//353 352//352
f 352//352 353//353 354//354
f 357//355 353//353 355//356 356//357
f 354//354 353//353 357//355 358//358
f 358//358 359//359 354//354
f 355//356 360//360 356//357
f 361//361 360//360 355//356
f 362//362 360//360 361//361
f 364//363 353//353 351//351 363//364
f 355//356 353//353 364//363 361//361
f 365//365 364//363 363//364
f 365//365 350//350 366//366 367//367
f 363//364 350//350 365//365
f 370//368 366//366 368//369 369//370
f 367//367 366//366 370//368
f 369//370 368//369 371//371 372//372
f 371//371 373//373 372//372
f 376//374 373//373 374//375 375//376
f 372//372 373//373 376//374
f 375//376 377//377 378//378 379//379
f 374//375 377//377 375//376
f 381//380 379//379 378//378 380//381
f 383//382 381//380 380//381 382//383
f 382//383 384//384 383//382
f 384//384 385//385 386//386 320//320
f 382//383 385//385 384//384
f 383//382 384//384 387//387
f 380//381 388//388 385//385 382//383
f 378//378 389//389 388//388 380//381
f 391//390 379//379 381//380 390//391
f 392//392 391//390 390//391 316//316
f 394//393 393//394 391//390 392//392
f 396//395 395//396 393//394 394//393
f 398//397 397//398 395//396 396//395
f 398//397 399//399 397//398
f 397//398 400//400 376//374 395//396
f 394//393 132//133 401//401 396//395
f 402//402 132//133 394//393
f 378//378 377//377 389//389
f 403//403 377//377 374//375
f 395//396 376//374 375//376 393//394
f 374//375 373//373 403//403
f 376//374 400//400 369//370 372//372
f 400//400 370//368 369//370
f 367//367 370//368 399//399 404//404
f 405//405 365//365 367//367 404//404
f 143//144 364//363 365//365 405//405
f 352//352 359//359 406//406 349//349
f 354//354 359//359 352//352
f 406//406 359//359 176//177 407//407
f 409//408 406//406 407//407 408//409
f 408//409 407//407 410//410 411//411
f 413//412 408//409 411//411 412//413
f 415//414 413//412 412//413 414//415
f 417//416 416//417 415//414 414//415
f 419//418 417//416 414//415 418//419
f 421//420 419//418 418//419 420//421
f 422//422 419//418 421//420
f 424//423 422//422 421//420 423//424
f 426//425 424//423 423//424 425//426
f 428//427 427//428 426//425 425//426
f 429//429 427//428 428//427
f 431//430 429//429 428//427 430//431
f 218//218 432//432 431//430 430//431
f 432//432 433//433 434//434 431//430
f 433//433 435//435 436//436 434//434
f 436//436 437//437 438//438 434//434
f 437//437 439//439 440//440 438//438
f 442//441 441//442 439//439 437//437
f 439//439 441//442 443//443 444//444
f 443//443 445//445 446//446 444//444
f 445//445 447//447 448//448 446//446
f 447//447 449//449 416//417 448//448
f 450//450 449//449 447//447
f 451//451 450//450 447//447 445//445
f 452//452 451//451 445//445 443//443
f 443//443 441//442 452//452
f 453//453 442//441 437//437 436//436
f 435//435 454//454 453//453 436//436
f 454//454 329//330 335//333 453//453
f 456//455 454//454 435//435 455//456
f 458//457 457//458 456//455 455//456
f 460//459 458//457 455//456 459//460
f 462//461 458//457 460//459 461//462
f 463//463 458//457 462//461
f 462//461 464//464 463//463
f 464//464 328//328 465//465 463//463
f 462//461 461//462 466//466
f 466//466 461//462 227//227 232//232
f 456//455 457//458 467//467
f 467//467 457//458 465//465
f 465//465 457//458 458//457 463//463
f 455//456 435//435 433//433 459//460
f 459//460 433//433 432//432 224//224
f 428//427 468//468 219//219 430//431
f 469//469 468//468 428//427
f 470//470 468//468 469//469
f 471//471 206//205 470//470 469//469
f 434//434 438//438 429//429 431//430
f 428//427 425//426 471//471 469//469
f 438//438 440//440 427//428 429//429
f 426//425 427//428 472//472
f 473//473 424//423 426//425 472//472
f 475//474 474//475 473//473 472//472
f 474//475 476//476 477//477 473//473
f 477//477 422//422 424//423 473//473
f 418//419 478//478 479//479 420//421
f 478//478 480//480 481//481 479//479
f 480//480 482//482 483//483 481//481
f 483//483 188//189 484//484 481//481
f 485//485 188//189 483//483
f 483//483 181//180 485//485
f 479//479 481//481 484//484 486//486
f 421//420 420//421 487//487 488//488
f 487//487 489//489 490//490 488//488
f 477//477 419//418 422//422
f 476//476 417//416 419//418 477//477
f 448//448 416//417 417//416 476//476
f 492//491 491//492 413//412 415//414
f 411//411 410//410 482//482 480//480
f 366//366 350//350 348//348
f 351//351 350//350 363//364
f 347//347 349//349 406//406 409//408
f 368//369 366//366 348//348 346//346
f 343//343 345//345 491//492 492//491
f 342//342 373//373 371//371 344//344
f 403//403 373//373 342//342
f 339//339 451//451 452//452 337//337
f 385//385 388//388 338//338 336//336
f 337//337 441//442 442//441 334//335
f 452//452 441//442 337//337
f 335//333 334//335 442//441 453//453
f 333//334 332//332 386//386
f 467//467 329//330 454//454 456//455
f 324//325 329//330 467//467
f 335//333 329//330 331//331
f 330//329 323//323 321//321
f 326//324 319//319 322//322
f 320//320 332//332 330//329 321//321
f 386//386 332//332 320//320
f 315//315 384//384 320//320 317//317
f 387//387 384//384 315//315
f 390//391 314//314 316//316
f 315//315 314//314 387//387
f 312//312 307//308 309//309
f 306//305 307//308 318//318
f 305//306 304//304 493//493
f 302//302 319//319 326//324 327//327
f 318//318 319//319 302//302 306//305
f 495//494 304//304 301//301 494//495
f 493//493 304//304 495//494
f 303//303 302//302 327//327
f 303//303 298//299 300//300
f 299//298 297//296 496//496 497//497
f 298//299 328//328 464//464 296//297
f 496//496 297//296 295//295 498//498
f 294//294 464//464 462//461 466//466
f 296//297 464//464 294//294
f 293//293 291//292 1//2 499//499
f 229//230 228//228 236//236
f 231//229 294//294 466//466 232//232
f 292//291 231//229 230//231
f 461//462 460//459 223//223 227//227
f 232//232 227//227 226//225
f 219//219 468//468 217//217
f 224//224 432//432 218//218 221//220
f 219//219 218//218 430//431
f 214//213 213//214 236//236
f 234//234 213//214 211//211
f 215//215 468//468 470//470 212//212
f 217//217 468//468 215//215
f 234//234 210//210 289//289 237//237
f 211//211 210//210 234//234
f 285//285 208//209 207//208
f 205//206 490//490 199//199 201//201
f 490//490 489//489 197//197 199//199
f 198//198 196//196 282//281 284//283
f 196//196 195//195 280//280 282//281
f 484//484 191//190 193//192 486//486
f 190//191 189//188 194//194
f 194//194 189//188 287//287
f 187//187 188//189 485//485
f 275//275 189//188 186//186 277//277
f 287//287 189//188 275//275
f 484//484 188//189 191//190
f 277//277 185//185 500//500 279//279
f 186//186 185//185 277//277
f 168//168 279//279 500//500
f 185//185 183//183 500//500
f 187//187 181//180 180//181 184//184
f 485//485 181//180 187//187
f 482//482 179//178 181//180 483//483
f 410//410 177//176 179//178 482//482
f 176//177 359//359 358//358 175//174
f 407//407 176//177 177//176 410//410
f 358//358 357//355 173//173 175//174
f 174//175 171//172 172//171 178//179
f 162//162 279//279 168//168 165//164
f 278//278 279//279 162//162
f 164//165 170//170 155//154 163//163
f 278//278 161//161 272//273 273//272
f 162//162 161//161 278//278
f 272//273 161//161 501//501
f 501//501 161//161 160//160
f 501//501 158//158 254//254 250//250
f 160//160 158//158 501//501
f 158//158 157//157 256//255 254//254
f 163//163 155//154 154//155 159//159
f 152//152 151//151 261//261
f 170//170 147//148 150//150 155//154
f 169//169 148//147 147//148 170//170
f 173//173 357//355 146//145 148//147
f 144//143 357//355 356//357 362//362
f 146//145 357//355 144//143
f 141//142 143//144 405//405
f 145//146 142//141 138//139 149//149
f 141//142 405//405 404//404 139//140
f 138//139 137//137 151//151 149//149
f 139//140 399//399 398//397 140//138
f 404//404 399//399 139//140
f 261//261 136//135 133//132 260//259
f 134//134 135//136 140//138 401//401
f 129//130 259//260 260//259 133//132
f 265//265 259//260 129//130
f 130//131 132//133 402//402
f 401//401 132//133 134//134
f 130//131 402//402 313//313 131//129
f 127//127 126//126 131//129 310//310
f 118//119 127//127 308//307 117//116
f 113//114 116//117 495//494 112//111
f 495//494 494//495 109//110 112//111
f 497//497 496//496 105//105 108//107
f 105//105 496//496 498//498 106//106
f 106//106 498//498 499//499 102//102
f 107//108 104//104 51//51 47//48
f 58//55 49//47 48//49 53//53
f 50//50 49//47 85//85
f 46//46 110//109 107//108 47//48
f 111//112 110//109 46//46 42//43
f 50//50 44//42 43//44
f 45//45 44//42 87//87
f 41//41 114//113 111//112 42//43
f 45//45 91//91 40//39 39//40
f 35//35 119//118 115//115 37//37
f 40//39 34//34 36//36
f 33//33 121//120 119//118 35//35
f 92//92 34//34 40//39 91//91
f 32//32 34//34 92//92 94//94
f 122//123 121//120 33//33 31//31
f 94//94 29//29 32//32
f 78//78 29//29 94//94 93//93
f 30//30 29//29 78//78 77//77
f 263//264 124//124 27//27 25//25
f 76//76 24//24 26//26 30//30
f 23//23 264//262 263//264 25//25
f 22//22 24//24 76//76 75//75
f 266//266 264//262 23//23 21//21
f 502//502 266//266 21//21 19//19
f 70//70 18//18 20//20 71//72
f 17//17 268//268 502//502 19//19
f 16//16 18//18 70//70 67//68
f 269//270 268//268 17//17 15//15
f 66//67 13//13 16//16 67//68
f 14//14 13//13 66//67 95//95
f 8//8 10//10 14//14 97//97
f 239//240 241//242 9//9 7//7
f 3//4 6//6 98//98 99//99
f 503//503 5//5 2//3
f 499//499 1//2 4//1 102//102
f 100//100 4//1 3//4 99//99
f 98//98 6//6 8//8 97//97
f 12//12 11//11 269//270 15//15
f 103//103 106//106 102//102 101//101
f 86//86 59//59 88//89 84//84
f 57//58 59//59 86//86
f 20//20 22//22 75//75 71//72
f 109//110 494//495 497//497 108//107
f 37//37 114//113 41//41 38//38
f 28//28 27//27 122//123 31//31
f 2//3 291//292 290//290 503//503
f 1//2 291//292 2//3
f 503//503 239//240 7//7 5//5
f 240//238 239//240 503//503
f 243//244 245//246 270//269
f 498//498 295//295 293//293 499//499
f 267//267 255//256 266//266 502//502
f 252//252 255//256 267//267
f 116//117 308//307 305//306 493//493
f 117//116 308//307 116//117
f 124//124 128//128 125//125 123//122
f 265//265 128//128 124//124 262//263
f 212//212 206//205 203//203 204//204
f 470//470 206//205 212//212
f 489//489 193//192 192//193 197//197
f 223//223 460//459 459//460 224//224
f 427//428 440//440 475//474 472//472
f 412//413 411//411 480//480 478//478
f 386//386 385//385 336//336 333//334
f 289//289 208//209 285//285 288//288
f 210//210 208//209 289//289
f 283//284 286//286 288//288 285//285
f 276//276 248//248 251//251 281//282
f 271//271 248//248 276//276
f 503//503 290//290 240//238
f 9//9 243//244 270//269 11//11
f 241//242 243//244 9//9
f 249//249 272//273 501//501 250//250
f 494//495 301//301 299//298 497//497
f 157//157 156//156 258//257 256//255
f 209//207 204//204 202//202
f 200//200 198//198 284//283 207//208
f 280//280 194//194 287//287 274//274
f 195//195 194//194 280//280
f 225//226 222//222 220//221
f 500//500 182//182 167//166 168//168
f 183//183 182//182 500//500
f 362//362 364//363 143//144 144//143
f 361//361 364//363 362//362
f 504//504 205//206 206//205 471//471
f 488//488 490//490 205//206 504//504
f 486//486 193//192 489//489 487//487
f 425//426 423//424 504//504 471//471
f 423//424 421//420 488//488 504//504
f 420//421 479//479 486//486 487//487
f 440//440 439//439 444//444 475//474
f 446//446 448//448 476//476 474//475
f 414//415 412//413 478//478 418//419
f 502//502 268//268 267//267
f 152//152 156//156 153//153
f 495//494 116//117 493//493
f 129//130 128//128 265//265
f 151//151 137//137 136//135 261//261
f 311//311 313//313 392//392 316//316
f 313//313 402//402 394//393 392//392
f 140//138 398//397 396//395 401//401
f 228//228 216//216 214//213 236//236
f 220//221 216//216 228//228 225//226
f 182//182 172//171 166//167 167//166
f 328//328 324//325 467//467 465//465
f 325//326 324//325 328//328
f 356//357 360//360 362//362
f 314//314 381//380 383//382 387//387
f 390//391 381//380 314//314
f 393//394 375//376 379//379 391//390
f 399//399 370//368 400//400 397//398
f 444//444 446//446 474//475 475//474
f 416//417 449//449 492//491 415//414
f 491//492 409//408 408//409 413//412
f 341//341 450//450 451//451 339//339
f 343//343 449//449 450//450 341//341
f 492//491 449//449 343//343
f 345//345 347//347 409//408 491//492
f 388//388 389//389 340//340 338//338
f 340//340 377//377 403//403 342//342
f 389//389 377//377 340//340
f 371//371 368//369 346//346 344//344
