# Blender 5.2.0 LTS
# www.blender.org
mtllib fizz.mtl
o RenderMesh_89003848220970
v 0.106726 0.107222 -0.257659
v -0.089953 0.043035 -0.217166
v -0.106726 0.107222 -0.257659
v 0.106726 0.824613 -0.257659
v -0.106726 0.824613 -0.257659
v -0.086120 0.918418 -0.207912
v -0.106726 0.824613 0.257659
v 0.086120 0.918418 0.207912
v -0.086120 0.918418 0.207912
v -0.106726 0.824613 0.257659
v -0.106726 0.107222 0.257659
v 0.106726 0.107222 0.257659
v 0.089953 0.043035 0.217166
v -0.089953 0.043035 0.217166
v 0.106726 0.824613 0.257659
v 0.086120 0.918418 0.207912
v -0.086120 0.918418 0.207912
v 0.086120 0.936009 0.207912
v -0.086120 0.936009 0.207912
v 0.106726 0.824613 -0.257659
v -0.106726 0.107222 -0.257659
v -0.106726 0.824613 -0.257659
v 0.106726 0.107222 -0.257659
v -0.089953 0.043035 -0.217166
v 0.089953 0.043035 -0.217166
v -0.086120 0.918418 -0.207912
v 0.086120 0.918418 -0.207912
v -0.086120 0.936009 -0.207912
v 0.086120 0.936009 -0.207912
v -0.257659 0.824613 0.106726
v -0.257659 0.107222 0.106726
v -0.106726 0.107222 0.257659
v -0.217166 0.043035 0.089953
v -0.089953 0.043035 0.217166
v -0.106726 0.824613 0.257659
v -0.207912 0.918418 0.086120
v -0.086120 0.918418 0.207912
v -0.086120 0.936009 0.207912
v -0.207912 0.936009 0.086120
v -0.207912 0.918418 -0.086120
v -0.207912 0.918418 0.086120
v -0.207912 0.936009 -0.086120
v -0.257659 0.824613 -0.106726
v -0.257659 0.824613 0.106726
v -0.257659 0.107222 0.106726
v -0.257659 0.107222 -0.106726
v -0.217166 0.043035 0.089953
v -0.217166 0.043035 -0.089953
v -0.086120 0.936009 -0.207912
v -0.086120 0.918418 -0.207912
v -0.207912 0.918418 -0.086120
v -0.106726 0.824613 -0.257659
v -0.257659 0.824613 -0.106726
v -0.257659 0.107222 -0.106726
v -0.106726 0.107222 -0.257659
v -0.217166 0.043035 -0.089953
v -0.089953 0.043035 -0.217166
v 0.257659 0.824613 -0.106726
v 0.106726 0.107222 -0.257659
v 0.106726 0.824613 -0.257659
v 0.257659 0.107222 -0.106726
v 0.217166 0.043035 -0.089953
v 0.089953 0.043035 -0.217166
v 0.207912 0.918418 -0.086120
v 0.086120 0.918418 -0.207912
v 0.086120 0.936009 -0.207912
v 0.207912 0.936009 -0.086120
v 0.207912 0.918418 0.086120
v 0.207912 0.936009 0.086120
v 0.207912 0.918418 -0.086120
v 0.257659 0.824613 0.106726
v 0.257659 0.824613 -0.106726
v 0.257659 0.107222 -0.106726
v 0.257659 0.107222 0.106726
v 0.217166 0.043035 -0.089953
v 0.217166 0.043035 0.089953
v 0.086120 0.918418 0.207912
v 0.086120 0.936009 0.207912
v 0.207912 0.918418 0.086120
v 0.106726 0.824613 0.257659
v 0.257659 0.824613 0.106726
v 0.257659 0.107222 0.106726
v 0.106726 0.107222 0.257659
v 0.217166 0.043035 0.089953
v 0.089953 0.043035 0.217166
vn 0.3678 -0.2768 -0.8877
vn -0.3162 -0.5638 -0.7630
vn -0.3678 -0.2768 -0.8877
vn 0.3715 0.2431 -0.8960
vn -0.3715 0.2432 -0.8960
vn -0.3677 0.2746 -0.8885
vn -0.3715 0.2432 0.8960
vn 0.3677 0.2746 0.8885
vn -0.3677 0.2747 0.8884
vn -0.3715 0.2431 0.8960
vn -0.3678 -0.2768 0.8878
vn 0.3678 -0.2768 0.8877
vn 0.3162 -0.5637 0.7630
vn -0.3162 -0.5637 0.7630
vn 0.3715 0.2431 0.8961
vn -0.3677 0.2746 0.8885
vn 0.3823 0.0003 0.9240
vn -0.3823 0.0003 0.9240
vn -0.3715 0.2431 -0.8960
vn 0.3678 -0.2769 -0.8877
vn 0.3162 -0.5637 -0.7630
vn 0.3715 0.2432 -0.8960
vn 0.3677 0.2746 -0.8885
vn -0.3823 0.0003 -0.9240
vn 0.3823 0.0003 -0.9240
vn -0.8960 0.2431 0.3715
vn -0.8877 -0.2768 0.3678
vn -0.3678 -0.2768 0.8877
vn -0.7630 -0.5637 0.3163
vn -0.3163 -0.5637 0.7630
vn -0.3716 0.2431 0.8960
vn -0.8884 0.2746 0.3678
vn -0.3678 0.2746 0.8885
vn -0.3824 0.0002 0.9240
vn -0.9240 0.0003 0.3824
vn -0.8885 0.2746 -0.3677
vn -0.8885 0.2746 0.3677
vn -0.9240 0.0003 0.3823
vn -0.9240 0.0003 -0.3823
vn -0.8961 0.2431 -0.3715
vn -0.8961 0.2431 0.3715
vn -0.8878 -0.2768 -0.3678
vn -0.7630 -0.5637 0.3162
vn -0.7630 -0.5637 -0.3162
vn -0.9240 0.0002 -0.3824
vn -0.3824 0.0003 -0.9240
vn -0.3678 0.2746 -0.8884
vn -0.8885 0.2746 -0.3678
vn -0.8960 0.2431 -0.3715
vn -0.8877 -0.2768 -0.3679
vn -0.7630 -0.5637 -0.3163
vn -0.3163 -0.5637 -0.7630
vn 0.8960 0.2431 -0.3715
vn 0.3716 0.2431 -0.8960
vn 0.8877 -0.2768 -0.3678
vn 0.7630 -0.5637 -0.3163
vn 0.3163 -0.5637 -0.7630
vn 0.8884 0.2746 -0.3678
vn 0.3678 0.2746 -0.8885
vn 0.3824 0.0002 -0.9240
vn 0.9240 0.0003 -0.3824
vn 0.8885 0.2746 0.3677
vn 0.9240 0.0003 -0.3823
vn 0.9240 0.0003 0.3823
vn 0.8885 0.2746 -0.3677
vn 0.8961 0.2431 0.3715
vn 0.8961 0.2431 -0.3715
vn 0.8878 -0.2768 0.3678
vn 0.7630 -0.5637 -0.3162
vn 0.7630 -0.5637 0.3162
vn 0.3678 0.2746 0.8884
vn 0.9240 0.0002 0.3824
vn 0.3824 0.0003 0.9240
vn 0.8885 0.2746 0.3678
vn 0.3715 0.2431 0.8960
vn 0.8960 0.2431 0.3715
vn 0.8877 -0.2768 0.3679
vn 0.7630 -0.5637 0.3163
vn 0.3163 -0.5637 0.7630
vt 0.073243 0.074091
vt 0.079208 0.003017
vt 0.073243 0.868449
vt 0.080571 0.972319
vt 0.149149 0.868449
vt 0.141822 0.972319
vt 0.149149 0.074091
vt 0.143185 0.003017
vt 0.141822 0.991798
vt 0.080571 0.991798
vt 0.618176 0.868449
vt 0.618176 0.074091
vt 0.785303 0.074091
vt 0.599604 0.003017
vt 0.740465 0.003017
vt 0.785303 0.868449
vt 0.595360 0.972319
vt 0.730219 0.972319
vt 0.730219 0.991798
vt 0.595360 0.991798
vt 0.404641 0.972319
vt 0.404641 0.991798
vt 0.381824 0.868449
vt 0.381824 0.074091
vt 0.400396 0.003017
vt 0.269782 0.991798
vt 0.269782 0.972319
vt 0.214698 0.868449
vt 0.214698 0.074091
vt 0.259535 0.003017
vt 0.095476 0.868449
vt 0.095476 0.074091
vt 0.097946 0.003017
vt 0.098511 0.972319
vt 0.098511 0.991798
vt 0.123882 0.972319
vt 0.123882 0.991798
vt 0.126917 0.868449
vt 0.126917 0.074091
vt 0.124446 0.003017
s 1
f 1/1/1 2/2/2 3/1/3
f 4/3/4 5/3/5 6/4/6
f 7/5/7 8/6/8 9/6/9
f 10/5/10 11/7/11 12/7/12
f 11/7/11 13/8/13 12/7/12
f 13/8/13 11/7/11 14/8/14
f 12/7/12 15/5/15 10/5/10
f 16/6/8 10/5/10 15/5/15
f 17/6/16 16/6/8 18/9/17
f 17/6/16 18/9/17 19/9/18
f 20/3/4 21/1/3 22/3/19
f 21/1/3 20/3/4 23/1/1
f 24/2/2 23/1/20 25/2/21
f 20/3/22 26/4/6 27/4/23
f 28/10/24 27/4/23 26/4/6
f 28/10/24 29/10/25 27/4/23
f 30/11/26 31/12/27 32/13/28
f 32/13/28 31/12/27 33/14/29
f 33/14/29 34/15/30 32/13/28
f 32/13/28 35/16/31 30/11/26
f 35/16/31 36/17/32 30/11/26
f 36/17/32 35/16/31 37/18/33
f 36/17/32 37/18/33 38/19/34
f 38/19/34 39/20/35 36/17/32
f 40/21/36 41/17/37 39/20/38
f 39/20/38 42/22/39 40/21/36
f 41/17/37 40/21/36 43/23/40
f 43/23/40 44/11/41 41/17/37
f 43/23/40 45/12/27 44/11/41
f 43/23/40 46/24/42 45/12/27
f 46/24/42 47/14/43 45/12/27
f 47/14/43 46/24/42 48/25/44
f 42/22/45 49/26/46 50/27/47
f 50/27/47 51/21/48 42/22/45
f 51/21/48 50/27/47 52/28/19
f 52/28/19 53/23/49 51/21/48
f 52/28/19 54/24/50 53/23/49
f 54/24/50 52/28/19 55/29/3
f 55/29/3 56/25/51 54/24/50
f 56/25/51 55/29/3 57/30/52
f 58/31/53 59/1/1 60/3/54
f 59/1/1 58/31/53 61/32/55
f 61/32/55 62/33/56 59/1/1
f 59/1/1 62/33/56 63/2/57
f 60/3/54 64/34/58 58/31/53
f 64/34/58 60/3/54 65/4/59
f 66/10/60 64/34/58 65/4/59
f 64/34/58 66/10/60 67/35/61
f 68/36/62 67/35/63 69/37/64
f 67/35/63 68/36/62 70/34/65
f 71/38/66 70/34/65 68/36/62
f 70/34/65 71/38/66 72/31/67
f 71/38/66 73/32/55 72/31/67
f 73/32/55 71/38/66 74/39/68
f 74/39/68 75/33/69 73/32/55
f 75/33/69 74/39/68 76/40/70
f 77/6/71 69/37/72 78/9/73
f 69/37/72 77/6/71 79/36/74
f 80/5/75 79/36/74 77/6/71
f 81/38/76 79/36/74 80/5/75
f 82/39/77 81/38/76 80/5/75
f 80/5/75 83/7/12 82/39/77
f 83/7/12 84/40/78 82/39/77
f 84/40/78 83/7/12 85/8/79
o RenderMesh_94924513978667
v -0.119826 0.963844 0.086370
v -0.151689 0.973471 0.067837
v -0.151689 0.963844 0.067837
v -0.119826 0.973471 0.086370
v -0.164126 0.973471 0.000000
v -0.164126 0.963844 0.000000
v -0.151689 0.973471 -0.067837
v -0.151689 0.963844 -0.067837
v -0.119826 0.973471 -0.086370
v -0.119826 0.963844 -0.086370
v 0.164126 0.990792 -0.050815
v 0.164126 0.990792 0.050815
v 0.164126 0.972428 -0.050815
v 0.164126 0.972428 0.050815
v 0.164126 0.972428 0.050815
v 0.136103 0.990792 0.076738
v 0.136103 0.972428 0.076738
v 0.164126 0.990792 0.050815
v 0.164126 0.990792 -0.050815
v 0.136103 0.972428 -0.076738
v 0.136103 0.990792 -0.076738
v 0.164126 0.972428 -0.050815
v -0.067315 0.963844 0.086370
v -0.119826 0.973471 0.086370
v -0.119826 0.963844 0.086370
v -0.067315 0.973471 0.086370
v -0.067315 0.963844 -0.086370
v -0.119826 0.963844 -0.086370
v -0.067315 0.973471 -0.086370
v -0.119826 0.973471 -0.086370
v 0.136103 0.990792 0.076738
v -0.006049 0.990792 0.068598
v 0.136103 0.972428 0.076738
v -0.006049 0.972428 0.068598
v 0.136103 0.990792 -0.076738
v -0.006049 0.972428 -0.068598
v -0.006049 0.990792 -0.068598
v 0.136103 0.972428 -0.076738
v -0.027161 0.972428 0.054616
v -0.006049 0.972428 0.068598
v -0.027161 0.990792 0.054616
v -0.006049 0.990792 0.068598
v -0.047122 0.990792 0.029175
v -0.047122 0.972428 0.029175
v -0.027161 0.972428 -0.054616
v -0.047122 0.972428 -0.029175
v -0.027161 0.990792 -0.054616
v -0.047122 0.990792 -0.029175
v -0.006049 0.990792 -0.068598
v -0.006049 0.972428 -0.068598
v -0.047122 0.990792 -0.029175
v -0.047122 0.972428 -0.029175
v -0.054031 0.972428 0.000000
v -0.054031 0.990792 -0.000000
v -0.047122 0.972428 0.029175
v -0.047122 0.990792 0.029175
v 0.071375 0.990792 -0.025029
v 0.071375 0.990792 0.025029
v 0.071375 0.972428 -0.025029
v 0.071375 0.972428 0.025029
v -0.027161 0.990792 -0.054616
v -0.008753 0.990792 -0.036329
v -0.006049 0.990792 -0.068598
v -0.028497 0.990792 -0.016585
v -0.047122 0.990792 -0.029175
v -0.054031 0.990792 -0.000000
v -0.028497 0.990792 -0.016585
v -0.054031 0.990792 -0.000000
v -0.028497 0.990792 0.016585
v -0.047122 0.990792 0.029175
v -0.027161 0.990792 0.054616
v -0.008753 0.990792 0.036329
v -0.028497 0.990792 0.016585
v -0.006049 0.990792 0.068598
v -0.008753 0.990792 -0.036329
v 0.024417 0.990792 -0.036329
v -0.006049 0.990792 -0.068598
v -0.008753 0.990792 0.036329
v -0.006049 0.990792 0.068598
v 0.024417 0.990792 0.036329
v -0.006049 0.990792 0.068598
v 0.136103 0.990792 0.076738
v 0.024417 0.990792 0.036329
v -0.006049 0.990792 -0.068598
v 0.024417 0.990792 -0.036329
v 0.136103 0.990792 -0.076738
v 0.136103 0.990792 -0.076738
v 0.114418 0.990792 -0.036329
v 0.164126 0.990792 -0.050815
v 0.114418 0.990792 -0.036329
v 0.136103 0.990792 -0.076738
v 0.082675 0.990792 -0.036329
v 0.164126 0.990792 0.050815
v 0.114418 0.990792 0.036329
v 0.136103 0.990792 0.076738
v 0.082675 0.990792 0.036329
v 0.136103 0.990792 0.076738
v 0.114418 0.990792 0.036329
v 0.114418 0.990792 0.036329
v 0.164126 0.990792 0.050815
v 0.134162 0.990792 0.016585
v 0.164126 0.990792 -0.050815
v 0.134162 0.990792 0.016585
v 0.164126 0.990792 0.050815
v 0.134162 0.990792 -0.016585
v 0.114418 0.990792 -0.036329
v 0.134162 0.990792 -0.016585
v 0.164126 0.990792 -0.050815
v 0.024417 0.990792 -0.036329
v 0.082675 0.990792 -0.036329
v 0.136103 0.990792 -0.076738
v 0.024417 0.990792 0.036329
v 0.136103 0.990792 0.076738
v 0.082675 0.990792 0.036329
v 0.071375 0.990792 0.025029
v 0.044161 0.990792 0.016585
v 0.024417 0.990792 0.036329
v 0.071375 0.990792 0.025029
v 0.024417 0.990792 0.036329
v 0.082675 0.990792 0.036329
v 0.024417 0.990792 -0.036329
v 0.071375 0.990792 -0.025029
v 0.082675 0.990792 -0.036329
v 0.044161 0.990792 -0.016585
v 0.071375 0.990792 -0.025029
v 0.044161 0.990792 -0.016585
v 0.044161 0.990792 0.016585
v 0.071375 0.990792 0.025029
v -0.032767 0.973471 -0.067430
v -0.164126 0.973471 0.000000
v -0.032767 0.973471 0.067430
v -0.067315 0.973471 0.086370
v -0.067315 0.973471 -0.086370
v -0.119826 0.973471 0.086370
v -0.151689 0.973471 0.067837
v -0.119826 0.973471 -0.086370
v -0.151689 0.973471 -0.067837
v 0.082675 0.990792 -0.036329
v 0.071375 0.972428 -0.025029
v 0.082675 0.972428 -0.036329
v 0.071375 0.990792 -0.025029
v 0.114418 0.990792 -0.036329
v 0.114418 0.972428 -0.036329
v 0.024417 0.972428 -0.036329
v 0.044161 0.972428 -0.016585
v 0.024417 0.990792 -0.036329
v 0.044161 0.990792 -0.016585
v 0.044161 0.972428 0.016585
v 0.044161 0.990792 -0.016585
v 0.044161 0.990792 0.016585
v 0.044161 0.990792 0.016585
v 0.044161 0.972428 0.016585
v 0.024417 0.972428 0.036329
v 0.024417 0.990792 0.036329
v -0.006049 0.972428 0.036329
v 0.024417 0.990792 0.036329
v -0.008753 0.990792 0.036329
v -0.008753 0.972428 0.036329
v -0.008753 0.972428 -0.036329
v -0.008753 0.990792 -0.036329
v -0.028497 0.972428 -0.016585
v -0.028497 0.990792 -0.016585
v -0.006049 0.972428 -0.036329
v -0.008753 0.990792 -0.036329
v 0.024417 0.990792 -0.036329
v 0.024417 0.972428 -0.036329
v -0.028497 0.990792 0.016585
v -0.008753 0.972428 0.036329
v -0.028497 0.972428 0.016585
v -0.008753 0.990792 0.036329
v -0.028497 0.990792 -0.016585
v -0.028497 0.972428 0.016585
v -0.028497 0.972428 -0.016585
v -0.028497 0.990792 0.016585
v 0.134162 0.990792 0.016585
v 0.134162 0.972428 0.016585
v 0.114418 0.972428 0.036329
v 0.114418 0.990792 0.036329
v 0.082675 0.972428 0.036329
v 0.082675 0.990792 0.036329
v 0.071375 0.990792 0.025029
v 0.071375 0.972428 0.025029
v -0.032767 0.963844 -0.067430
v -0.067315 0.963844 -0.086370
v -0.032767 0.973471 -0.067430
v -0.067315 0.973471 -0.086370
v -0.032767 0.973471 0.067430
v -0.032767 0.963844 0.067430
v -0.067315 0.973471 0.086370
v -0.067315 0.963844 0.086370
v 0.114418 0.990792 -0.036329
v 0.114418 0.972428 -0.036329
v 0.134162 0.990792 -0.016585
v 0.134162 0.972428 -0.016585
v 0.134162 0.972428 0.016585
v 0.134162 0.990792 -0.016585
v 0.134162 0.990792 0.016585
vn -0.2604 -0.0000 0.9655
vn -0.8181 -0.0000 0.5750
vn -1.0000 -0.0000 0.0005
vn -0.8181 -0.0000 -0.5750
vn -0.2604 -0.0000 -0.9655
vn 0.9164 -0.0000 -0.4003
vn 0.9164 -0.0000 0.4003
vn 0.3376 -0.0000 0.9413
vn 0.3376 -0.0000 -0.9413
vn 0.2477 -0.0000 0.9688
vn -0.2602 -0.0000 0.9655
vn 0.2477 -0.0000 -0.9688
vn -0.2602 -0.0000 -0.9655
vn 0.3375 -0.0000 0.9413
vn -0.3159 -0.0000 0.9488
vn 0.3375 -0.0000 -0.9413
vn -0.3159 -0.0000 -0.9488
vn -0.6781 -0.0000 0.7349
vn -0.3160 -0.0000 0.9488
vn -0.9008 -0.0000 0.4341
vn -0.6781 -0.0000 -0.7349
vn -0.9008 -0.0000 -0.4341
vn -0.3160 -0.0000 -0.9488
vn -0.9009 -0.0000 -0.4340
vn -0.9009 -0.0000 0.4340
vn 0.9239 -0.0000 0.3825
vn 0.9239 -0.0000 -0.3825
vn 0.0005 1.0000 0.0005
vn 0.0003 1.0000 0.0003
vn 0.3827 -0.0000 0.9239
vn 0.9239 -0.0000 0.3826
vn 0.3824 -0.0000 0.9240
vn -0.3825 -0.0000 0.9239
vn -0.3826 -0.0000 0.9239
vn -0.9239 -0.0000 0.3826
vn -0.9239 -0.0000 -0.3825
vn -0.9239 -0.0000 0.3825
vn -0.9239 -0.0000 -0.3826
vn -0.3826 -0.0000 -0.9239
vn 0.0005 -0.0000 -1.0000
vn -0.3825 -0.0000 -0.9239
vn 0.3825 -0.0000 -0.9239
vn 0.3826 -0.0000 0.9239
vn 0.0005 -0.0000 1.0000
vn 0.3825 -0.0000 0.9239
vn 0.9239 -0.0000 -0.3826
vn 0.3826 -0.0000 -0.9239
vn -0.3827 -0.0000 -0.9239
vn -0.3824 -0.0000 -0.9240
vn 0.3827 -0.0000 -0.9239
vn 0.8604 -0.0000 -0.5095
vn 0.2478 -0.0000 -0.9688
vn 0.8604 -0.0000 0.5095
vn 0.2478 -0.0000 0.9688
vt 0.370949 0.350659
vt 0.408082 0.329059
vt 0.422576 0.250000
vt 0.408082 0.170941
vt 0.370949 0.149341
vt 0.625000 0.000000
vt 0.625000 0.125000
vt 0.375000 0.000000
vt 0.375000 0.125000
vt 0.375000 0.250000
vt 0.625000 0.250000
vt 0.625000 1.000000
vt 0.375000 1.000000
vt 0.309749 0.350659
vt 0.309749 0.149341
vt 0.625000 0.500000
vt 0.375000 0.500000
vt 0.375000 0.750000
vt 0.625000 0.750000
vt 0.375000 0.625000
vt 0.625000 0.625000
vt 0.541511 0.682066
vt 0.541511 0.567934
vt 0.458489 0.682066
vt 0.458489 0.625000
vt 0.625000 0.691199
vt 0.625000 0.666017
vt 0.625000 0.556725
vt 0.625000 0.583983
vt 0.541511 0.932066
vt 0.541511 0.317934
vt 0.552348 0.815265
vt 0.552348 0.434735
vt 0.541511 0.182066
vt 0.541511 0.067934
vt 0.544727 0.519513
vt 0.544727 0.730487
vt 0.269486 0.171415
vt 0.269486 0.328585
vt 0.455273 0.730487
vt 0.447652 0.815265
vt 0.458489 0.932066
vt 0.458489 0.000000
vt 0.458489 0.067934
vt 0.541511 0.000000
vt 0.458489 0.182066
vt 0.541511 0.125000
vt 0.458489 0.317934
vt 0.451577 0.443559
vt 0.548423 0.443559
vt 0.450969 0.454711
vt 0.450969 0.795289
vt 0.549031 0.795289
vt 0.457983 0.689728
vt 0.451577 0.806441
vt 0.542017 0.560272
vt 0.458489 0.567934
vt 0.549031 0.454711
vt 0.447652 0.434735
vt 0.455273 0.519513
s 1
f 86/41/80 87/42/81 88/42/81
f 87/42/81 86/41/80 89/41/80
f 90/43/82 88/42/81 87/42/81
f 88/42/81 90/43/82 91/43/82
f 92/44/83 91/43/82 90/43/82
f 91/43/82 92/44/83 93/44/83
f 92/44/83 94/45/84 93/44/83
f 95/45/84 93/44/83 94/45/84
f 96/46/85 97/47/86 98/48/85
f 98/48/85 97/47/86 99/49/86
f 100/50/86 101/51/87 102/50/87
f 101/51/87 100/50/86 103/51/86
f 104/52/85 105/53/88 106/52/88
f 105/53/88 104/52/85 107/53/85
f 108/54/89 109/41/90 110/41/90
f 109/41/90 108/54/89 111/54/89
f 112/55/91 113/45/92 114/55/91
f 115/45/92 114/55/91 113/45/92
f 116/51/93 117/56/94 118/50/93
f 119/57/94 118/50/93 117/56/94
f 120/52/95 121/58/96 122/59/96
f 121/58/96 120/52/95 123/53/95
f 124/57/97 125/57/98 126/56/97
f 125/57/98 127/56/98 126/56/97
f 128/56/99 124/57/97 126/56/97
f 128/56/99 129/57/99 124/57/97
f 130/58/100 131/58/101 132/59/100
f 132/59/100 131/58/101 133/59/101
f 132/59/100 134/59/102 130/58/100
f 134/59/102 135/58/102 130/58/100
f 136/59/103 137/58/103 138/60/82
f 136/59/103 138/60/82 139/61/82
f 139/61/82 138/60/82 140/57/104
f 139/61/82 140/57/104 141/56/104
f 142/62/105 143/63/106 144/64/105
f 144/64/105 143/63/106 145/65/106
f 146/59/107 147/66/107 148/59/107
f 146/59/107 149/67/107 147/66/107
f 150/59/107 149/67/107 146/59/107
f 149/67/107 150/59/107 151/61/107
f 152/67/107 153/61/107 154/61/107
f 153/61/107 155/56/107 154/61/107
f 156/56/107 154/61/107 155/56/107
f 156/56/107 157/68/107 158/69/107
f 157/68/107 156/56/107 159/56/107
f 160/66/107 161/70/107 162/59/107
f 163/68/107 164/56/107 165/71/107
f 166/56/107 167/51/107 168/71/107
f 169/59/107 170/70/107 171/52/107
f 172/52/107 173/70/107 174/52/107
f 175/70/107 176/52/107 177/72/107
f 178/51/107 179/71/107 180/51/107
f 181/73/107 182/51/107 183/71/107
f 184/71/107 185/51/107 186/74/107
f 187/46/107 188/74/107 189/51/107
f 188/74/107 187/46/107 190/75/107
f 191/70/107 192/75/107 193/52/107
f 194/70/107 195/72/107 196/52/107
f 197/71/107 198/51/107 199/73/107
f 200/76/107 201/74/107 202/71/107
f 203/76/107 204/71/107 205/73/107
f 206/70/107 207/77/107 208/72/107
f 207/77/107 206/70/107 209/75/107
f 210/62/107 211/75/107 212/74/107
f 210/62/107 212/74/107 213/76/107
f 214/78/107 215/43/108 216/79/107
f 216/79/107 215/43/108 217/54/107
f 215/43/108 214/78/107 218/55/107
f 217/54/107 215/43/108 219/41/107
f 219/41/107 215/43/108 220/42/107
f 221/45/107 215/43/108 218/55/107
f 215/43/108 221/45/107 222/44/107
f 223/72/109 224/80/110 225/81/111
f 224/80/110 223/72/109 226/77/110
f 225/81/111 227/70/112 223/72/109
f 228/82/112 227/70/112 225/81/111
f 229/83/113 230/84/114 231/85/113
f 231/85/113 230/84/114 232/75/114
f 233/86/115 234/75/116 230/84/116
f 234/75/116 233/86/115 235/87/115
f 236/74/117 237/86/117 238/88/118
f 236/74/117 238/88/118 239/71/118
f 240/89/119 241/71/120 238/88/120
f 241/71/120 240/89/119 242/90/121
f 242/90/121 240/89/119 243/91/121
f 244/92/122 245/93/122 246/94/110
f 245/93/122 247/62/110 246/94/110
f 248/95/123 249/93/124 244/92/124
f 248/95/123 250/70/112 249/93/124
f 250/70/112 248/95/123 251/82/112
f 252/96/125 253/91/126 254/97/125
f 253/91/126 252/96/125 255/98/126
f 256/62/105 257/65/106 258/64/105
f 257/65/106 256/62/105 259/63/106
f 260/74/117 261/86/117 262/88/127
f 260/74/117 262/88/127 263/71/128
f 264/99/129 263/71/128 262/88/127
f 263/71/128 264/99/129 265/73/129
f 266/76/125 265/73/129 264/99/129
f 267/100/125 266/76/125 264/99/129
f 268/78/130 269/55/131 270/78/130
f 271/55/131 270/78/130 269/55/131
f 270/78/130 272/79/132 268/78/130
f 268/78/130 272/79/132 273/79/132
f 274/54/133 273/79/132 272/79/132
f 273/79/132 274/54/133 275/54/133
f 276/85/113 277/83/113 278/75/114
f 277/83/113 279/84/114 278/75/114
f 280/86/115 281/75/116 279/84/116
f 281/75/116 280/86/115 282/87/115
o RenderMesh_140365340853233
v 0.089953 -0.010805 -0.217166
v -0.217166 -0.010805 -0.089953
v -0.089953 -0.010805 -0.217166
v -0.217166 -0.010805 0.089953
v -0.089953 -0.010805 0.217166
v 0.089953 -0.010805 0.217166
v 0.217166 -0.010805 -0.089953
v 0.217166 -0.010805 0.089953
v -0.231223 0.016131 -0.095776
v -0.217166 -0.010805 0.089953
v -0.231223 0.016131 0.095776
v -0.217166 -0.010805 -0.089953
v -0.089953 -0.010805 -0.217166
v -0.095776 0.016131 0.231223
v -0.089953 -0.010805 0.217166
v 0.089953 -0.010805 0.217166
v 0.095776 0.016131 0.231223
v -0.089953 0.043067 0.217166
v 0.089953 0.043067 0.217166
v -0.217166 0.043067 0.089953
v -0.217166 0.043067 -0.089953
v -0.095776 0.016131 -0.231223
v -0.089953 0.043067 -0.217166
v 0.089953 0.043067 -0.217166
v 0.095776 0.016131 -0.231223
v 0.089953 -0.010805 -0.217166
v 0.217166 0.043067 -0.089953
v 0.217166 -0.010805 -0.089953
v 0.231223 0.016131 -0.095776
v 0.217166 0.043067 0.089953
v 0.231223 0.016131 0.095776
v 0.217166 -0.010805 0.089953
v 0.089953 -0.010805 0.217166
v 0.095776 0.016131 0.231223
v 0.089953 0.043067 0.217166
v -0.091874 0.989849 -0.221803
v -0.184739 0.989849 -0.076522
v -0.076522 0.989849 -0.184739
v -0.221803 0.989849 -0.091874
v 0.091874 0.989849 -0.221803
v -0.184739 0.989849 0.076522
v 0.076522 0.989849 -0.184739
v -0.221803 0.989849 0.091874
v 0.221803 0.989849 -0.091874
v -0.076522 0.989849 0.184739
v 0.184739 0.989849 -0.076522
v -0.091874 0.989849 0.221803
v 0.076522 0.989849 0.184739
v 0.091874 0.989849 0.221803
v 0.221803 0.989849 0.091874
v 0.184739 0.989849 0.076522
v 0.091874 0.989849 0.221803
v 0.076522 0.989849 0.184739
v 0.177663 0.967623 -0.073591
v 0.184739 0.989849 0.076522
v 0.184739 0.989849 -0.076522
v 0.076522 0.989849 -0.184739
v 0.177663 0.967623 0.073591
v 0.076522 0.989849 0.184739
v 0.073591 0.967623 0.177663
v 0.073591 0.967623 -0.177663
v -0.073591 0.967623 -0.177663
v -0.076522 0.989849 -0.184739
v -0.177663 0.967623 -0.073591
v -0.184739 0.989849 -0.076522
v -0.177663 0.967623 0.073591
v -0.184739 0.989849 0.076522
v -0.076522 0.989849 0.184739
v -0.073591 0.967623 0.177663
v 0.073591 0.967623 0.177663
v 0.076522 0.989849 0.184739
v -0.073591 0.967623 -0.177663
v 0.177663 0.967623 -0.073591
v 0.073591 0.967623 -0.177663
v 0.177663 0.967623 0.073591
v 0.073591 0.967623 0.177663
v -0.073591 0.967623 0.177663
v -0.177663 0.967623 -0.073591
v -0.177663 0.967623 0.073591
v 0.221803 0.989849 -0.091874
v 0.230419 0.962945 0.095443
v 0.230419 0.962945 -0.095443
v 0.221803 0.989849 0.091874
v 0.095443 0.962945 0.230419
v 0.091874 0.989849 0.221803
v 0.091874 0.936041 0.221803
v 0.221803 0.936041 0.091874
v 0.221803 0.936041 -0.091874
v 0.091874 0.936041 -0.221803
v 0.095443 0.962945 -0.230419
v 0.091874 0.989849 -0.221803
v -0.091874 0.989849 -0.221803
v -0.095443 0.962945 -0.230419
v -0.091874 0.936041 -0.221803
v -0.221803 0.989849 -0.091874
v -0.230419 0.962945 -0.095443
v -0.221803 0.936041 -0.091874
v -0.221803 0.989849 0.091874
v -0.230419 0.962945 0.095443
v -0.221803 0.936041 0.091874
v -0.091874 0.936041 0.221803
v -0.095443 0.962945 0.230419
v -0.091874 0.989849 0.221803
v 0.091874 0.989849 0.221803
v 0.095443 0.962945 0.230419
v 0.091874 0.936041 0.221803
v 0.091874 0.936041 0.221803
v -0.086120 0.936041 0.207912
v 0.086120 0.936041 0.207912
v -0.091874 0.936041 0.221803
v -0.221803 0.936041 0.091874
v -0.207912 0.936041 0.086120
v -0.207912 0.936041 -0.086120
v -0.221803 0.936041 -0.091874
v -0.091874 0.936041 -0.221803
v -0.086120 0.936041 -0.207912
v 0.086120 0.936041 -0.207912
v 0.091874 0.936041 -0.221803
v 0.221803 0.936041 -0.091874
v 0.207912 0.936041 -0.086120
v 0.207912 0.936041 0.086120
v 0.221803 0.936041 0.091874
v 0.091874 0.936041 0.221803
v 0.086120 0.936041 0.207912
vn 0.0002 -1.0000 0.0002
vn 0.0003 -1.0000 0.0003
vn -0.9239 0.0005 -0.3826
vn -0.8044 -0.4918 0.3332
vn -0.9240 0.0004 0.3825
vn -0.8044 -0.4918 -0.3332
vn -0.3329 -0.4919 -0.8045
vn -0.3827 -0.0000 0.9239
vn -0.3332 -0.4918 0.8044
vn 0.3335 -0.4918 0.8043
vn 0.3825 0.0005 0.9240
vn -0.3332 0.4918 0.8044
vn 0.3335 0.4918 0.8043
vn -0.8044 0.4917 0.3335
vn -0.8046 0.4919 -0.3327
vn -0.3826 0.0006 -0.9239
vn -0.3327 0.4919 -0.8046
vn 0.3335 0.4917 -0.8043
vn 0.3824 0.0006 -0.9240
vn 0.3332 -0.4918 -0.8044
vn 0.8044 0.4918 -0.3332
vn 0.8044 -0.4918 -0.3332
vn 0.9239 -0.0000 -0.3827
vn 0.8044 0.4918 0.3332
vn 0.9239 0.0004 0.3826
vn 0.8044 -0.4918 0.3332
vn 0.3825 0.0005 0.9239
vn 0.0003 1.0000 0.0003
vn -0.8735 0.3258 0.3618
vn -0.8733 0.3259 -0.3621
vn -0.8733 0.3260 0.3621
vn -0.3621 0.3255 0.8735
vn -0.8733 0.3259 -0.3622
vn -0.3622 0.3259 -0.8733
vn -0.3618 0.3258 0.8735
vn 0.3618 0.3258 0.8735
vn 0.8735 0.3258 0.3618
vn 0.8735 0.3258 -0.3618
vn 0.3621 0.3260 -0.8733
vn 0.3618 0.3258 -0.8735
vn -0.3621 0.3259 -0.8733
vn 0.0002 1.0000 0.0002
vn 0.8728 0.3276 -0.3618
vn 0.9239 0.0003 0.3826
vn 0.8728 0.3277 0.3618
vn 0.3826 0.0005 0.9239
vn 0.3619 0.3277 0.8727
vn 0.3619 -0.3277 0.8727
vn 0.8727 -0.3278 0.3619
vn 0.8728 -0.3276 -0.3618
vn 0.3616 -0.3275 -0.8729
vn 0.3825 0.0004 -0.9240
vn 0.3616 0.3275 -0.8729
vn -0.3616 0.3275 -0.8729
vn -0.3826 0.0005 -0.9239
vn -0.3616 -0.3275 -0.8729
vn -0.8728 0.3276 -0.3619
vn -0.9239 0.0004 -0.3826
vn -0.8729 -0.3275 -0.3616
vn -0.8729 0.3275 0.3616
vn -0.8729 -0.3275 0.3616
vn -0.3620 -0.3277 0.8727
vn -0.3620 0.3277 0.8727
vn 0.3618 0.3277 0.8727
vn 0.3618 -0.3277 0.8727
vt 0.580294 0.080294
vt 0.919706 0.080294
vt 0.750000 0.010000
vt 0.990000 0.250000
vt 0.919706 0.419706
vt 0.750000 0.490000
vt 0.510000 0.250000
vt 0.580294 0.419706
vt 0.625000 0.500000
vt 0.750000 0.500000
vt 0.500000 0.500000
vt 0.875000 0.500000
vt 1.000000 0.500000
vt 0.375000 0.500000
vt 0.250000 0.500000
vt 0.125000 0.500000
vt 0.000000 0.500000
vt 0.500000 1.000000
vt 0.625000 1.000000
vt 0.375000 1.000000
vt 0.750000 1.000000
vt 0.250000 1.000000
vt 0.875000 1.000000
vt 1.000000 1.000000
vt 0.125000 1.000000
vt 0.000000 1.000000
s 1
f 283/101/134 284/102/135 285/103/135
f 284/102/135 283/101/134 286/104/135
f 283/101/134 287/105/135 286/104/135
f 283/101/134 288/106/135 287/105/135
f 288/106/135 283/101/134 289/107/135
f 288/106/135 289/107/135 290/108/135
f 291/109/136 292/110/137 293/110/138
f 292/110/137 291/109/136 294/109/139
f 291/109/136 295/111/140 294/109/139
f 296/112/141 293/110/138 292/110/137
f 292/110/137 297/112/142 296/112/141
f 298/113/143 296/112/141 297/112/142
f 296/112/141 298/113/143 299/113/144
f 299/113/144 300/112/145 296/112/141
f 300/112/145 299/113/144 301/113/146
f 302/110/147 296/112/141 300/112/145
f 296/112/141 302/110/147 293/110/138
f 303/109/148 293/110/138 302/110/147
f 293/110/138 303/109/148 291/109/136
f 303/109/148 304/111/149 291/109/136
f 295/111/140 291/109/136 304/111/149
f 303/109/148 305/111/150 304/111/149
f 306/114/151 304/111/149 305/111/150
f 307/114/152 295/111/140 304/111/149
f 304/111/149 306/114/151 307/114/152
f 295/111/140 307/114/152 308/114/153
f 309/115/154 307/114/152 306/114/151
f 307/114/152 310/115/155 308/114/153
f 307/114/152 309/115/154 311/115/156
f 307/114/152 311/115/156 310/115/155
f 312/116/157 311/115/156 309/115/154
f 313/116/158 310/115/155 311/115/156
f 311/115/156 312/116/157 313/116/158
f 310/115/155 313/116/158 314/116/159
f 315/117/143 314/116/159 313/116/158
f 313/116/158 316/117/160 315/117/143
f 316/117/160 313/116/158 312/116/157
f 316/117/160 312/116/157 317/117/146
f 318/118/161 319/119/161 320/118/161
f 319/119/161 318/118/161 321/119/161
f 322/120/161 318/118/161 320/118/161
f 323/121/161 319/119/161 321/119/161
f 322/120/161 320/118/161 324/120/161
f 321/119/161 325/121/161 323/121/161
f 326/122/161 322/120/161 324/120/161
f 325/121/161 327/123/161 323/121/161
f 324/120/161 328/122/161 326/122/161
f 327/123/161 325/121/161 329/123/161
f 329/123/161 330/124/161 327/123/161
f 329/123/161 331/124/161 330/124/161
f 328/122/161 332/125/161 326/122/161
f 332/125/161 328/122/161 333/125/161
f 334/126/161 332/125/161 333/125/161
f 333/125/161 335/126/161 334/126/161
f 336/122/162 337/125/163 338/122/164
f 339/120/165 336/122/162 338/122/164
f 337/125/163 336/122/162 340/125/166
f 341/126/167 337/125/163 340/125/166
f 341/126/167 340/125/166 342/126/167
f 336/122/162 339/120/165 343/120/168
f 344/118/169 343/120/168 339/120/165
f 344/118/169 339/120/165 345/118/169
f 346/119/170 344/118/169 345/118/169
f 345/118/169 347/119/170 346/119/170
f 348/121/171 346/119/170 347/119/170
f 347/119/170 349/121/171 348/121/171
f 350/123/172 348/121/171 349/121/171
f 348/121/171 350/123/172 351/123/173
f 350/123/172 352/124/174 351/123/173
f 350/123/172 353/124/174 352/124/174
f 354/118/175 355/122/161 356/120/161
f 355/122/161 354/118/175 357/125/161
f 354/118/175 358/126/161 357/125/161
f 354/118/175 359/123/161 358/126/161
f 359/123/161 354/118/175 360/119/161
f 359/123/161 360/119/161 361/121/161
f 362/122/176 363/125/177 364/122/156
f 363/125/177 362/122/176 365/125/178
f 366/126/179 363/125/177 365/125/178
f 366/126/179 365/125/178 367/126/180
f 363/125/177 366/126/179 368/126/181
f 363/125/177 368/126/181 369/125/182
f 369/125/182 364/122/156 363/125/177
f 364/122/156 369/125/182 370/122/183
f 371/120/184 364/122/156 370/122/183
f 372/120/185 362/122/176 364/122/156
f 364/122/156 371/120/184 372/120/185
f 362/122/176 372/120/185 373/120/186
f 374/118/187 373/120/186 372/120/185
f 375/118/188 372/120/185 371/120/184
f 374/118/187 372/120/185 375/118/188
f 375/118/188 371/120/184 376/118/189
f 377/119/190 374/118/187 375/118/188
f 378/119/191 375/118/188 376/118/189
f 375/118/188 378/119/191 377/119/190
f 376/118/189 379/119/192 378/119/191
f 380/121/193 377/119/190 378/119/191
f 381/121/138 378/119/191 379/119/192
f 378/119/191 381/121/138 380/121/193
f 379/119/192 382/121/194 381/121/138
f 383/123/195 381/121/138 382/121/194
f 384/123/141 380/121/193 381/121/138
f 381/121/138 383/123/195 384/123/141
f 380/121/193 384/123/141 385/123/196
f 384/123/141 386/124/197 385/123/196
f 386/124/197 384/123/141 387/124/144
f 383/123/195 387/124/144 384/123/141
f 387/124/144 383/123/195 388/124/198
f 389/124/135 390/123/135 391/124/135
f 390/123/135 389/124/135 392/123/135
f 393/121/135 390/123/135 392/123/135
f 390/123/135 393/121/135 394/121/135
f 393/121/135 395/119/135 394/121/135
f 393/121/135 396/119/135 395/119/135
f 397/118/135 395/119/135 396/119/135
f 395/119/135 397/118/135 398/118/135
f 397/118/135 399/120/135 398/118/135
f 397/118/135 400/120/135 399/120/135
f 401/122/135 399/120/135 400/120/135
f 399/120/135 401/122/135 402/122/135
f 401/122/135 403/125/135 402/122/135
f 401/122/135 404/125/135 403/125/135
f 405/126/135 403/125/135 404/125/135
f 403/125/135 405/126/135 406/126/135
